<?xml version="1.0" encoding="utf-8"?>
<!-- Generator: Adobe Illustrator 16.0.0, SVG Export Plug-In . SVG Version: 6.00 Build 0)  -->
<!DOCTYPE svg PUBLIC "-//W3C//DTD SVG 1.1//EN" "http://www.w3.org/Graphics/SVG/1.1/DTD/svg11.dtd">
<svg version="1.1" id="Layer_1" xmlns="http://www.w3.org/2000/svg" xmlns:xlink="http://www.w3.org/1999/xlink" x="0px" y="0px"
	 width="1920px" height="160px" viewBox="0 0 1920 160" enable-background="new 0 0 1920 160" xml:space="preserve">
<g>
	<path fill="#FBCC34" d="M1919.803,122.605c-0.02-0.096,0.087-0.219,0.197-0.344V0h-398.872c-0.03,0.008-0.048,0.019-0.081,0.025
		c-0.039,0.008-0.086-0.004-0.137-0.025h-190.309c-0.028,0.025-0.056,0.052-0.084,0.077c-0.022-0.025-0.053-0.052-0.077-0.077
		H604.208c-0.333,0.621-0.969,0.928-1.81,0.799c-0.501-0.077-1.143-0.402-1.522-0.799H318.969c0.282,0.336,0.39,0.8,0.263,1.311
		c-0.214,0.849-0.913,1.289-1.831,1.266c-0.879-0.304-1.356-0.958-1.143-1.841C316.328,0.447,316.46,0.2,316.634,0H216.402
		c0.036,0.041,0.073,0.082,0.108,0.123c1.825,2.181,2.559,4.825,3.121,7.537l-0.002,0.001c-2.164-1.701-4.371-3.371-5.451-6.043
		c-0.212-0.522-0.357-1.123-0.193-1.618H0v160h701.18c0.001-0.164,0.026-0.334,0.088-0.511c0.247-0.701,0.727-1.558,1.335-1.835
		c0.943-0.431,1.438,0.388,1.415,1.27c-0.01,0.388-0.073,0.751-0.194,1.076h107.599c-0.048-0.135-0.088-0.277-0.122-0.425
		c-0.193-0.854,0.034-1.735,0.945-1.996c1.313-0.374,2.008,0.44,2.368,1.61c0.032,0.28,0.029,0.555-0.012,0.811h596.017
		c0.302-0.292,0.604-0.651,0.915-0.661c0.314-0.01,0.645,0.376,0.97,0.661H1920v-36.982
		C1919.916,122.925,1919.843,122.799,1919.803,122.605z M119.663,34.777l-0.019,0.018l0.021-0.018l-0.021,0.018L119.663,34.777z
		 M11.424,143.549c-1.223-0.161-2.099-0.948-1.744-2.299c0.328-1.245,1.415-1.614,2.622-1.619c1.2,0.18,2.33,0.74,2.234,2.018
		C14.402,143.445,12.889,143.742,11.424,143.549z M31.839,136.504c-2.347-0.35-4.104-1.661-5.114-3.787
		c-0.976-2.052-1.811-4.491,0.648-5.872c2.314-1.3,3.424,0.921,4.348,2.604c0.925,1.686,1.658,3.477,2.301,4.847
		C33.988,136.199,33.088,136.687,31.839,136.504z M37.853,73.815c-1.229-0.128-1.737-1.138-1.825-2.274
		c-0.088-1.146,0.254-2.29,1.556-2.34c1.664-0.063,2.149,1.243,2.34,2.514C39.716,73.047,39.131,73.947,37.853,73.815z
		 M43.867,118.087c-0.654-0.296-1.368-0.942-1.589-1.591c-0.307-0.898,0.375-1.545,1.324-1.462c1.186,0.104,1.952,0.802,2.095,2.05
		C45.4,118.007,44.682,118.458,43.867,118.087z M58.113,28.136c-0.875-0.29-1.28-0.954-1.21-1.815
		c0.074-0.895,0.59-1.537,1.548-1.17c0.387,0.148,0.73,0.777,0.825,1.242C59.453,27.27,59.041,27.917,58.113,28.136z M67.363,43.221
		c-0.66,1.131-1.233,2.761-3.008,2.088c-0.81-0.309-0.763-1.438-0.44-2.219c0.735-1.784,1.4-3.713,3.671-4.07
		c0.242-0.038,0.607,0.713,1.033,1.248C68.231,41.202,67.912,42.278,67.363,43.221z M70.33,111.702
		c-0.096,0.146-0.394,0.163-0.603,0.238c-0.136-0.171-0.41-0.362-0.389-0.516c0.089-0.624,0.472-0.768,0.948-0.354
		C70.405,111.173,70.425,111.553,70.33,111.702z M72.274,151.2l-0.373-0.386l0.502-0.136L72.274,151.2z M81.917,91.442l0.297-0.377
		l0.173,0.442L81.917,91.442z M106.723,24.195c-0.392-0.217-0.991-0.352-1.116-0.67c-0.115-0.3,0.272-0.793,0.437-1.203
		c0.392,0.217,0.786,0.433,1.177,0.65C107.056,23.381,106.891,23.787,106.723,24.195z M118.6,102.791
		c0.209-1.152,1.134-1.766,2.299-1.737c0.877,0.022,1.421,0.565,1.471,1.5c-0.12,1.2-0.817,1.977-1.96,2.106
		C119.149,104.803,118.37,104.075,118.6,102.791z M122.715,140.917c-0.03,0.169-0.354,0.394-0.549,0.396
		c-0.18,0.006-0.369-0.246-0.554-0.388c0.084-0.22,0.108-0.561,0.26-0.632C122.486,140,122.829,140.252,122.715,140.917z
		 M141.856,83.658l-0.227-0.412l0.467-0.01L141.856,83.658z M145.793,61.994c-1.272,0.371-2.035-0.375-1.986-1.646
		c0.043-1.141,0.727-2.013,1.898-2.189c0.903-0.139,1.417,0.475,1.585,1.354C147.346,60.675,146.916,61.667,145.793,61.994z
		 M150.331,38.697c-0.214-0.41-0.678-0.912-0.573-1.209c0.131-0.364,0.738-0.557,1.139-0.823c0.213,0.409,0.426,0.821,0.639,1.231
		C151.133,38.164,150.733,38.431,150.331,38.697z M160.321,38.178c-0.317-0.24-0.636-0.48-0.953-0.72
		c0.319,0.239,0.636,0.478,0.953,0.718V38.178z M167.839,25.971c-0.12,0.105-0.535,0.03-0.682-0.105
		c-0.141-0.131-0.11-0.445-0.153-0.684c0.21-0.113,0.468-0.369,0.624-0.316C168.269,25.079,168.356,25.525,167.839,25.971z
		 M176.225,142.694c-0.199-0.436-0.399-0.868-0.598-1.306c0.42-0.199,0.84-0.396,1.261-0.593c0.201,0.438,0.617,0.926,0.531,1.294
		C177.354,142.37,176.647,142.5,176.225,142.694z M185.565,95.502l-0.27-0.403l0.471-0.036L185.565,95.502z M191.101,152.688
		c-1.347,0.327-2.021-0.643-2.036-1.88c-0.018-1.475,0.585-2.806,2.088-3.196c1.362-0.357,1.896,0.663,2.041,1.883
		C193.095,150.959,192.647,152.313,191.101,152.688z M195.302,59.318c-1.007,2.503-3.961,0.579-5.972,0.09
		c-5.743-1.395-6.769-2.568-5.577-6.073c0.24-0.705,0.95-1.251,1.597-2.067c0.681,0.723,1.309,1.224,1.724,1.863
		c0.969,1.497,2.381,2.187,4.018,2.721C192.97,56.463,196.549,56.225,195.302,59.318z M206.867,70.671
		c-0.06,1.136-0.455,2.374-1.797,2.282c-1.393-0.094-1.447-1.453-1.432-2.542c0.017-1.142,0.348-2.173,1.747-2.338
		C206.674,68.482,206.927,69.539,206.867,70.671z M211.394,129.262c-0.307-0.332-0.613-0.665-0.921-1.001
		c0.333-0.281,0.691-0.817,0.993-0.787c0.354,0.036,0.658,0.563,0.983,0.879C212.118,128.639,211.783,128.927,211.394,129.262z
		 M290.139,14.26c0.469-1.063,1.393-1.727,2.575-1.535c0.92,0.15,1.324,0.973,0.944,1.818c-0.473,1.058-1.419,1.578-2.609,1.557
		C290.116,15.797,289.767,15.107,290.139,14.26z M252.375,1.969c0.101-0.302,0.891-0.369,1.365-0.541
		c0.807,0.371,1.497,0.916,1.174,1.869c-0.104,0.303-0.956,0.613-1.349,0.502C252.739,3.567,252.051,2.926,252.375,1.969z
		 M225.541,88.931l0.338-0.335l0.129,0.451L225.541,88.931z M245.297,54.767l-0.331-0.347l0.456-0.121L245.297,54.767z
		 M252.923,42.28c-1.395-0.497-2.392-1.558-2.146-3.106c0.204-1.296,1.336-1.688,2.526-1.31c1.453,0.46,2.205,1.53,2.153,3.06
		C255.051,42.267,254.114,42.705,252.923,42.28z M266.173,116.813c-0.177,0.13-0.502,0.058-0.765,0.071
		c0.008-0.247-0.078-0.621,0.047-0.716c0.172-0.13,0.504-0.055,0.742-0.063C266.197,116.35,266.293,116.726,266.173,116.813z
		 M266.739,104.12c-0.148,0.091-0.517,0.077-0.622-0.039c-0.415-0.469-0.28-0.854,0.332-0.95c0.147-0.023,0.343,0.257,0.515,0.398
		C266.895,103.734,266.882,104.028,266.739,104.12z M281.982,125.969l0.005-0.482l0.411,0.25L281.982,125.969z M284.97,105.676
		c-0.682,0.011-0.875-0.369-0.474-0.943c0.099-0.139,0.436-0.113,0.664-0.163c0.102,0.204,0.309,0.432,0.274,0.615
		C285.398,105.379,285.138,105.67,284.97,105.676z M290.993,63.932c-0.834,0.383-1.488,0.154-1.364-0.468
		c0.365-1.835,1.812-2.742,3.419-3.399c0.647-0.266,1.365,0.015,1.273,0.57C294.005,62.549,292.252,63.131,290.993,63.932z
		 M307.068,4.796c-0.66,0.185-1.196-0.036-1.262-0.698c-0.124-1.266,0.561-2.1,1.726-2.512c0.642-0.227,1.196,0.038,1.271,0.695
		C308.945,3.567,308.188,4.33,307.068,4.796z M317.221,28.906c-0.854-0.074-1.669-0.383-1.443-1.372
		c0.197-0.86,1.083-1.167,1.907-0.98c0.422,0.096,1.026,0.573,1.064,0.928C318.853,28.473,318.033,28.746,317.221,28.906z
		 M394.229,42.473c0.164-0.023,0.367,0.215,0.552,0.332c-0.077,0.202-0.099,0.487-0.242,0.582c-0.158,0.1-0.523,0.117-0.636,0.006
		C393.443,42.945,393.574,42.572,394.229,42.473z M322.333,114.358c-0.172,0.113-0.61,0.103-0.733-0.036
		c-0.493-0.544-0.34-0.998,0.381-1.123c0.172-0.03,0.405,0.297,0.609,0.46C322.51,113.9,322.499,114.247,322.333,114.358z
		 M321.566,14.355c-0.33-0.028-0.886-0.693-0.86-1.033c0.069-0.881,0.774-1.294,1.634-1.4c0.296,0.361,0.858,0.742,0.836,1.084
		C323.12,13.891,322.421,14.424,321.566,14.355z M333.371,89.682c-0.398,1.643-0.772,3.291-1.177,4.932
		c-0.204,0.826-0.5,1.599-1.737,1.748c-0.458-0.488-1.164-0.998-1.53-1.687c-1.248-2.354-0.373-4.384,1.288-6.133
		c0.912-0.96,1.813-2.688,3.303-1.938C334.546,87.119,333.624,88.628,333.371,89.682z M350.871,159.223
		c-1.248,0.574-2.239-0.21-2.367-1.464c-0.217-2.14-0.665-4.44,1.465-6.004c1.822-0.012,2.459,1.261,2.861,2.586
		C353.463,156.429,352.958,158.264,350.871,159.223z M359.549,118.215c-1.242-0.28-1.564-1.517-1.537-2.684
		c0.018-0.854,0.339-1.877,1.367-1.691c1.377,0.252,1.31,1.604,1.454,2.697C360.745,117.38,360.628,118.458,359.549,118.215z
		 M367.07,109.398c-0.246,0.313-0.495,0.63-0.741,0.943c0.238-0.325,0.475-0.649,0.712-0.975l0.029,0.028l-0.029-0.028
		L367.07,109.398z M373.833,89.038c-0.199-1.379-0.537-2.757-0.537-4.134c0-0.664,0.768-0.684,1.026,0.054
		C374.818,86.365,374.292,87.711,373.833,89.038z M379.347,27.795c-1.482,0.063-1.93-0.872-1.989-2.068
		c-0.056-1.131,0.12-2.363,1.233-2.852c1.337-0.586,2.048,0.438,2.317,1.568C381.259,25.914,380.857,27.162,379.347,27.795z
		 M388.515,87.855c-0.866-0.064-1.342-0.855-1.383-1.705c-0.043-0.873,0.395-1.655,1.335-1.586c0.865,0.066,1.288,0.836,1.404,1.696
		C389.815,87.134,389.455,87.924,388.515,87.855z M397.707,74.584c-0.227,1.929-1.344,3.032-3.354,2.896
		c-1.181-0.079-2.276-0.708-2.44-1.919c-0.309-2.277,1.527-2.68,3.16-3.102c0.808-0.209,1.656-0.254,2.484-0.373v-0.002
		C397.616,72.918,397.805,73.768,397.707,74.584z M402.489,134.229c-0.3,0.084-0.749-0.373-1.133-0.59
		c0.253-0.371,0.45-0.959,0.781-1.048c0.308-0.08,0.756,0.371,1.141,0.591C403.021,133.554,402.823,134.139,402.489,134.229z
		 M408.224,19.897c-0.66,0.165-0.974-0.146-0.784-0.778c0.042-0.143,0.408-0.186,0.628-0.273c0.17,0.161,0.449,0.304,0.483,0.49
		C408.581,19.506,408.38,19.857,408.224,19.897z M410.818,105.24l0.322-0.425l0.204,0.497L410.818,105.24z M413.897,58.14
		c-0.642-0.05-0.931-0.409-0.779-1.057c0.056-0.237,0.204-0.523,0.398-0.646c0.572-0.359,1.112-0.161,1.114,0.495
		C414.633,57.334,414.159,57.737,413.897,58.14z M425.965,22.054c-0.396,0.329-0.857,0.585-1.292,0.872
		c-0.556,0.567-1.113,1.134-1.672,1.702l0.001,0.001L423,24.628c0,0,0,0.001-0.001,0.001l-0.041-0.043
		c0.567-0.557,1.138-1.115,1.703-1.67c0.227-0.471,0.415-0.963,0.688-1.402c0.387-0.619,1.001-1.69,1.589-1.156
		C427.554,20.915,426.518,21.591,425.965,22.054z M437.05,46.053c-0.384,0.001-0.768-0.43-1.154-0.678
		c0.246-0.355,0.486-0.988,0.741-0.994c0.376-0.01,0.762,0.43,1.144,0.676C437.537,45.412,437.296,46.051,437.05,46.053z
		 M437.028,9.892c-0.217-0.124-0.409-0.419-0.467-0.671c-0.161-0.693,0.201-1.234,0.848-1.072c0.378,0.094,0.61,0.772,0.909,1.189
		C438.102,10.027,437.653,10.246,437.028,9.892z M445.982,31.875l-0.118-0.454l0.469,0.111L445.982,31.875z M450.37,106.019
		c-0.161-0.055-0.327-0.415-0.298-0.609c0.022-0.175,0.307-0.313,0.476-0.466c0.206,0.117,0.55,0.191,0.598,0.355
		C451.329,105.943,451.015,106.235,450.37,106.019z M456.356,56.717c-0.206-0.076-0.534-0.097-0.597-0.238
		c-0.26-0.58-0.013-0.906,0.61-0.805c0.156,0.024,0.368,0.339,0.366,0.519C456.734,56.368,456.494,56.543,456.356,56.717z
		 M458.027,100.4c-0.206-0.067-0.502-0.076-0.596-0.22c-0.096-0.147-0.086-0.519,0.032-0.626c0.467-0.422,0.854-0.292,0.961,0.324
		C458.449,100.025,458.167,100.225,458.027,100.4z M465.918,1.069c-0.077,0.191-0.403,0.282-0.617,0.417
		c-0.213-0.131-0.599-0.248-0.613-0.396c-0.061-0.678,0.331-0.945,0.981-0.666C465.827,0.492,465.983,0.906,465.918,1.069z
		 M467.676,147.751c-0.922,0.025-1.713-0.377-1.554-1.309c0.113-0.665,0.717-1.417,1.315-1.794c0.727-0.451,1.678-0.225,1.887,0.735
		C469.601,146.637,468.768,147.338,467.676,147.751z M471.926,58.225c-0.719-0.318-1.3-0.914-1.055-1.787
		c0.255-0.916,1.077-1.139,1.858-0.684c0.391,0.227,0.773,0.803,0.805,1.246C473.607,57.995,472.923,58.338,471.926,58.225z
		 M475.417,3.723c-0.903,0.324-1.482-0.34-1.324-1.286c0.14-0.854,0.798-1.437,1.651-1.396c0.352,0.016,0.679,0.65,1.167,1.161
		C476.444,2.703,476.033,3.501,475.417,3.723z M478.887,117.868l0.016-0.017l0.17,0.363L478.887,117.868z M488.104,70.68
		l-0.025-0.52l0.479,0.244L488.104,70.68z M500.567,3.878l0.112-0.46l0.333,0.346L500.567,3.878z M504.896,43.455
		c-1.394,0.385-1.935-0.644-2.132-1.776c-0.149-0.862,0.229-1.7,1.092-1.929c1.374-0.363,1.914,0.572,2.161,1.741
		C506.021,42.369,505.734,43.221,504.896,43.455z M512.491,47.879c-0.258-0.029-0.665-0.77-0.607-1.121
		c0.131-0.809,0.719-1.311,1.609-1.337c0.215,0.39,0.663,0.822,0.604,1.167C513.958,47.396,513.348,47.981,512.491,47.879z
		 M536.54,119.221c-0.253,0.015-0.874-1.372-0.842-2.088c0.073-1.719,0.564-3.463,2.515-3.9c0.912-0.202,1.339,0.758,1.34,1.767
		C538.971,116.67,539.213,119.049,536.54,119.221z M549.462,56.425c-0.16,0.085-0.464-0.103-0.706-0.169
		c0.073-0.238,0.078-0.604,0.229-0.682c0.164-0.084,0.467,0.101,0.708,0.167C549.621,55.98,549.616,56.342,549.462,56.425z
		 M555.951,97.369c-0.206-0.125-0.521-0.202-0.596-0.38c-0.239-0.579,0.011-0.987,0.637-1.04c0.194-0.015,0.521,0.177,0.596,0.355
		C556.829,96.881,556.576,97.256,555.951,97.369z M561.619,84.619c-0.413,0.057-0.884-0.311-1.332-0.497
		c0.231-0.369,0.46-0.736,0.695-1.104c0.448,0.184,0.896,0.367,1.342,0.551C562.092,83.94,561.898,84.58,561.619,84.619z
		 M576.318,131.034c-0.722-0.322-0.703-0.693,0.018-1.016c0.17,0.181,0.343,0.361,0.513,0.541
		C576.667,130.727,576.406,131.072,576.318,131.034z M576.001,49.805c0.114-0.006-0.521-0.417-0.484-1.396
		c0.032-0.87,0.543-1.561,1.442-1.68c0.918-0.121,1.597,0.351,1.544,1.335C578.457,48.908,578.022,49.605,576.001,49.805z
		 M579.34,110.443c-0.223,0.006-0.636-0.228-0.641-0.362c-0.022-0.461,0.1-0.924,0.172-1.387c0.414,0.225,0.832,0.446,1.244,0.673
		C580.259,110.03,580.001,110.433,579.34,110.443z M579.553,81.929c-0.169-0.028-0.394-0.353-0.396-0.548
		c-0.006-0.182,0.247-0.369,0.387-0.555c0.22,0.084,0.559,0.109,0.632,0.261C580.471,81.701,580.218,82.044,579.553,81.929z
		 M583.373,7.295c-1.19-0.003-1.405-0.859-1.526-1.654c-0.26-1.703-0.246-3.425,1.367-4.519c0.859-0.585,1.788-0.085,1.813,0.847
		C585.079,3.9,584.855,5.85,583.373,7.295z M587.348,50.047c-0.349,0.654-0.698,1.311-1.047,1.967
		c-0.003-0.238-0.097-0.537,0.011-0.703c0.298-0.453,0.682-0.848,1.031-1.267c-0.009-0.278-0.054-0.56-0.024-0.833
		c0.212-1.828-0.841-3.967,1.213-5.315c0.22-0.145,1.154,0.296,1.321,0.663C591.104,47.297,588.914,48.543,587.348,50.047z
		 M597.964,20.937c-0.176-0.083-0.238-0.401-0.351-0.61c0.143-0.614,0.527-0.844,1.095-0.571c0.175,0.085,0.36,0.417,0.334,0.606
		C598.957,20.984,598.535,21.209,597.964,20.937z M601.21,53.913c-0.305,0.011-0.635-0.573-0.953-0.894
		c0.391-0.283,0.77-0.77,1.173-0.789c0.306-0.014,0.642,0.563,0.971,0.88C601.99,53.411,601.609,53.898,601.21,53.913z
		 M668.688,39.875l-0.005-0.007L668.688,39.875z M651.398,20.863c0.415-0.262,0.827-0.523,1.243-0.785
		c0.077,0.486,0.217,0.979,0.199,1.463c-0.005,0.162-0.41,0.443-0.629,0.441C651.526,21.979,651.255,21.556,651.398,20.863z
		 M607.466,113.692l-0.234-0.407l0.47-0.02L607.466,113.692z M610.437,61.93c-0.473,0.393-0.857,0.239-0.951-0.381
		c-0.022-0.146,0.229-0.436,0.401-0.484c0.167-0.043,0.396,0.14,0.598,0.223C610.474,61.508,610.553,61.835,610.437,61.93z
		 M617.39,20.51c-0.752,1.826-0.762,4.617-3.846,4.357c-1.5-0.125-2.334-1.609-2.253-3.094c0.151-2.732,1.984-3.884,4.508-3.829
		C617.173,17.976,617.522,19.125,617.39,20.51z M624.623,158.552l0.001-0.003L624.623,158.552z M627.527,37.535
		c-0.824,0.116-1.646,0.25-2.461,0.424c-1.534,0.325-2.926,2.055-4.577,0.701c-0.395-0.324-0.296-1.6-0.042-2.301
		c0.7-1.94,1.954-3.367,4.738-3.472c0.596,0.21,1.697,0.46,2.655,0.972c1.192,0.637,2.854,1.306,2.553,2.895
		C630.132,38.112,628.543,37.393,627.527,37.535z M630.524,142.01c-0.954-1.22,0.626-1.396,0.87-2.118l0.016,0.017
		C631.117,140.609,630.821,141.308,630.524,142.01z M640.632,148.924c-1.044,0.186-1.442-0.654-1.329-1.556
		c0.115-0.867,0.618-1.642,1.619-1.469c0.377,0.061,0.652,0.727,0.967,1.116C641.885,147.931,641.525,148.766,640.632,148.924z
		 M647.812,108.88c-0.32,0.557-0.735,0.549-1.028-0.017c-0.07-0.13,0.13-0.401,0.207-0.607c0.223,0,0.505-0.083,0.647,0.022
		C647.776,108.384,647.886,108.747,647.812,108.88z M650.423,74.189c-1.084-0.525-1.702-1.502-1.657-2.703
		c0.033-0.938,0.663-1.48,1.896-1.387c1.347,0.473,1.916,1.658,1.635,3.201C652.121,74.297,651.316,74.627,650.423,74.189z
		 M654.246,133.394c-0.685-0.145-1.455-0.699-1.826-1.298c-0.483-0.79-0.021-1.661,0.894-1.755c1.146-0.119,2.049,0.466,2.387,1.686
		C655.741,133.032,655.078,133.573,654.246,133.394z M665.479,51.425c-0.102,0.354-0.749,0.551-1.144,0.817
		c-0.877-0.373-1.17-1.125-0.948-1.934c0.1-0.348,0.82-0.83,1.133-0.754C665.422,49.773,665.715,50.612,665.479,51.425z
		 M668.23,148.505c-0.951-0.217-1.439-0.879-1.417-1.791c0.022-1.003,0.731-1.503,1.672-1.389c0.951,0.114,1.45,0.856,1.428,1.769
		C669.894,148.103,669.173,148.491,668.23,148.505z M693.378,18.523c-0.502,1.152-1.63,1.379-2.75,1.352
		c-1.098-0.028-2.19-0.203-3.283-0.314c-0.585,0.342-1.17,0.686-1.751,1.029c0.087-0.198,0.124-0.5,0.274-0.575
		c0.449-0.221,0.942-0.353,1.417-0.521c0.72-0.824,1.353-1.762,2.189-2.445c1.149-0.936,2.507-1.217,3.676-0.021
		C693.447,17.328,693.552,18.117,693.378,18.523z M700.825,84.287c-0.261,1.586-1.364,2.489-2.918,2.531
		c-1.354,0.038-2.129-0.816-1.68-2.187c0.488-1.489,1.691-2.165,3.256-2.155C700.417,82.725,700.98,83.357,700.825,84.287z
		 M805.801,21.89c0.025,0.147-0.256,0.347-0.395,0.521c-0.207-0.067-0.503-0.075-0.596-0.217c-0.097-0.148-0.084-0.52,0.03-0.625
		C805.309,21.144,805.696,21.274,805.801,21.89z M804.564,10.075c0.104-0.122,0.39-0.091,0.592-0.129
		c0.119,0.178,0.368,0.39,0.333,0.526c-0.146,0.561-0.529,0.643-0.945,0.199C804.443,10.563,804.459,10.201,804.564,10.075z
		 M720.507,69.936l0.378,0.297l-0.443,0.173L720.507,69.936z M720.347,102.65c-3.221-0.369-4.829-2.564-4.851-5.697
		c-0.014-2.027,0.709-3.969,3.227-3.969c1.918,0,4.194,3.537,4.375,6.426C723.148,101.32,722.493,102.897,720.347,102.65z
		 M729.937,138.428c-0.142,0.147-0.517,0.261-0.668,0.174c-0.599-0.332-0.577-0.756,0.065-1.042
		c0.161-0.071,0.446,0.128,0.677,0.202C729.994,137.992,730.061,138.3,729.937,138.428z M734.469,79.986
		c-0.218-0.092-0.563-0.129-0.626-0.285c-0.271-0.633,0-0.973,0.66-0.842c0.167,0.034,0.377,0.376,0.371,0.571
		C734.872,79.619,734.614,79.801,734.469,79.986z M739.321,24.105c-0.206-0.066-0.502-0.076-0.594-0.219
		c-0.099-0.146-0.088-0.52,0.028-0.625c0.466-0.422,0.857-0.292,0.959,0.323C739.742,23.731,739.46,23.93,739.321,24.105z
		 M746.113,29.51c-0.125,0.094-0.477,0.045-0.601-0.07c-0.114-0.106-0.062-0.391-0.081-0.596c0.191-0.1,0.422-0.322,0.565-0.275
		C746.556,28.754,746.607,29.137,746.113,29.51z M754.063,92.493c-0.177-0.149-0.458-0.277-0.492-0.455
		c-0.04-0.18,0.169-0.41,0.269-0.616c0.174,0.15,0.454,0.277,0.493,0.459C754.37,92.059,754.164,92.286,754.063,92.493z
		 M767.818,121.395c-1.245-0.069-1.503-1.569-1.35-2.703c0.21-1.577,0.121-3.723,2.384-3.684c1.219,0.021,1.159,1.668,1.275,2.841
		C769.845,119.314,770.33,121.535,767.818,121.395z M795.5,127.214c-0.188,0.003-0.494-0.181-0.536-0.342
		c-0.161-0.615,0.136-0.87,0.729-0.629c0.15,0.062,0.193,0.386,0.285,0.588C795.819,126.967,795.661,127.214,795.5,127.214z
		 M797.262,117.826c-0.656-0.261-1.383-0.706-1.729-1.283c-0.273-0.449,0.305-0.891,1.283-0.838
		c0.347,0.306,1.066,0.693,1.378,1.295C798.45,117.488,797.836,118.051,797.262,117.826z M805.583,71.004
		c-1.166,0.173-2.182-0.256-2.275-1.582c-0.09-1.227,0.731-1.896,1.867-2.191c1.2-0.074,2.169,0.328,2.279,1.623
		C807.557,70.082,806.741,70.832,805.583,71.004z M811.507,4.721c-0.067,0.168-0.355,0.246-0.543,0.364
		c-0.187-0.118-0.52-0.224-0.532-0.356c-0.051-0.598,0.293-0.832,0.863-0.582C811.436,4.208,811.565,4.572,811.507,4.721z
		 M1298.927,75.484c0.655,0.217,0.993,0.696,0.708,1.289c-0.285,0.591-0.896,0.651-1.442,0.244
		c-0.206-0.153-0.419-0.466-0.416-0.698C1297.794,75.623,1298.226,75.348,1298.927,75.484z M1234.975,58.9
		c-0.408,0.264-0.817,0.527-1.227,0.789c-0.076-0.488-0.212-0.979-0.193-1.465c0.007-0.166,0.4-0.448,0.619-0.448
		C1234.848,57.777,1235.114,58.203,1234.975,58.9z M1104.327,11.582c0.118-0.146,0.451-0.12,0.693-0.169
		c0.035,0.235,0.18,0.558,0.076,0.684c-0.117,0.148-0.447,0.123-0.687,0.173C1104.372,12.033,1104.223,11.709,1104.327,11.582z
		 M818.333,18.277l-0.131-0.451l0.466,0.117L818.333,18.277z M822.882,144.986l0.005-0.002c0.264-0.014,0.529-0.028,0.795-0.045
		C823.417,144.956,823.151,144.973,822.882,144.986z M834.78,62.797c-3.4-0.234-2.147-3.354-2.868-5.227
		c-0.3-0.779-0.134-1.698,1.241-1.762c1.964,0.91,3.831,2.329,4.361,4.612C837.932,62.219,836.165,62.892,834.78,62.797z
		 M843.661,33.154c-0.133,0.133-0.488,0.223-0.629,0.139c-0.558-0.329-0.524-0.728,0.075-0.978c0.151-0.063,0.415,0.138,0.626,0.216
		C843.715,32.745,843.774,33.035,843.661,33.154z M851.717,77.195l-0.05-0.052c0.232-0.681,0.466-1.364,0.698-2.044
		C853.247,76.136,851.862,76.475,851.717,77.195z M861.514,98.07c-0.142,1.076-0.548,2.08-1.907,2.127
		c-0.991-0.347-1.081-1.206-0.788-1.927c0.273-0.669,0.832-1.514,1.435-1.682C861.199,96.326,861.625,97.236,861.514,98.07z
		 M867.89,154.291c-1.257,0.056-1.852-0.907-2.059-1.99c-0.229-1.192,0.175-2.213,1.589-2.013c1.172,0.166,1.646,1.184,1.758,2.32
		C869.116,153.457,868.795,154.249,867.89,154.291z M889.77,115.367c0.016-0.338,0.574-0.648,0.893-0.973
		c0.255,0.401,0.721,0.813,0.699,1.2c-0.018,0.335-0.58,0.646-0.903,0.967C890.208,116.166,889.748,115.752,889.77,115.367z
		 M891.772,139.188c-0.105,0.139-0.466,0.249-0.6,0.172c-0.557-0.319-0.551-0.732,0.012-1.026c0.133-0.066,0.404,0.134,0.609,0.208
		C891.793,138.763,891.874,139.046,891.772,139.188z M900.999,69.704c-0.464-0.849-0.073-1.737,0.981-1.662
		c1.458,0.108,2.572,0.948,3.216,2.316c0.151,0.657-0.096,1.146-0.764,1.218C902.883,71.742,901.708,70.996,900.999,69.704z
		 M904.242,147.36c-0.087-0.214-0.282-0.469-0.222-0.635c0.061-0.181,0.359-0.277,0.555-0.411c0.086,0.217,0.281,0.469,0.228,0.636
		C904.735,147.13,904.436,147.228,904.242,147.36z M906.401,138.084c-0.215-0.496-0.342-1.034-0.501-1.556
		c-0.298-0.311-0.596-0.621-0.894-0.929c0.308,0.3,0.617,0.602,0.926,0.901c0.348,0.657,0.693,1.317,1.041,1.977
		C906.775,138.351,906.479,138.264,906.401,138.084z M925.754,147.335c-0.382-0.229-0.964-0.385-1.086-0.709
		c-0.11-0.3,0.28-0.785,0.449-1.187c0.382,0.229,0.765,0.46,1.146,0.689C926.099,146.534,925.926,146.934,925.754,147.335z
		 M931.621,100.623c-0.088,0.312-0.803,0.437-1.23,0.645c-1.038-0.686-1.364-1.686-0.967-2.795c0.119-0.335,0.981-0.762,1.227-0.629
		C931.749,98.426,931.943,99.532,931.621,100.623z M935.23,14.235c-0.169-0.101-0.188-0.456-0.271-0.698
		c0.25-0.057,0.568-0.23,0.731-0.136c0.165,0.098,0.187,0.456,0.269,0.701C935.713,14.156,935.391,14.33,935.23,14.235z
		 M938.165,29.555c-1.32-0.104-1.836-1.111-1.886-2.275c-0.018-0.4,0.484-0.823,0.754-1.236c1.319,0.219,1.697,1.227,1.925,2.334
		C939.094,29.044,938.791,29.605,938.165,29.555z M946.06,146.287c-0.616,0.297-0.958,0.041-0.843-0.624
		c0.027-0.169,0.354-0.394,0.548-0.399c0.181-0.002,0.366,0.253,0.555,0.392C946.237,145.874,946.211,146.215,946.06,146.287z
		 M948.426,56.121c-5.413,2.343-5.6,2.17-5.232-4.377l0.008-0.008c1.657,0.248,3.317,0.484,4.973,0.75
		c1.455,0.234,3.857-1.486,4.139,0.947C952.504,55.072,949.929,55.473,948.426,56.121z M955.258,89.771
		c-0.771,0.426-2.03,1.313-2.479-0.361c-0.078-0.295,1.031-1.149,1.707-1.355c1.276-0.389,2.638-0.488,3.96-0.711
		C957.392,88.169,956.414,89.131,955.258,89.771z M966.994,33.473c-0.176-0.021-0.419-0.327-0.436-0.518
		c-0.011-0.169,0.247-0.359,0.386-0.54c0.229,0.063,0.587,0.06,0.668,0.206C967.93,33.205,967.678,33.553,966.994,33.473z
		 M970.628,43.903c-0.509,0.421-0.901,0.245-0.971-0.438c-0.018-0.177,0.222-0.499,0.394-0.541c0.178-0.042,0.416,0.181,0.593,0.271
		C970.644,43.449,970.745,43.807,970.628,43.903z M972.353,26.102c-0.104-0.119-0.029-0.534,0.108-0.682
		c0.129-0.139,0.445-0.107,0.679-0.152c0.113,0.213,0.366,0.471,0.313,0.627C973.237,26.535,972.795,26.619,972.353,26.102z
		 M982.036,151.405l-0.343-0.35l0.454-0.119L982.036,151.405z M985.734,78.92c-1.144,0.436-1.308-0.514-1.249-1.283
		c0.03-0.428,0.504-0.822,0.779-1.233c0.315,0.37,0.631,0.74,0.945,1.112C986.059,78.004,986.026,78.808,985.734,78.92z
		 M991.525,140.121c-2.399-0.311-4.25-1.646-4.499-4.197c-0.164-1.672,1.229-2.304,2.826-2.495c2.492,0.23,4.074,1.614,4.272,4.184
		C994.249,139.248,993.178,140.333,991.525,140.121z M1015.155,28.332c-0.041,0.33-0.782,0.847-1.157,0.812
		c-1.2-0.113-2.014-0.856-1.95-2.129c0.02-0.29,0.759-0.542,1.17-0.813C1014.361,26.464,1015.327,26.976,1015.155,28.332z
		 M1027.159,16.321c-0.43,0.03-1.217-0.386-1.284-0.714c-0.207-1.023,0.597-1.508,1.458-1.562c0.436-0.027,0.902,0.448,1.349,0.695
		C1028.731,15.808,1028.015,16.262,1027.159,16.321z M1044.896,157.687l0.111-0.471l0.343,0.353L1044.896,157.687z M1049.708,63.25
		c-1.716-0.258-3.37-0.883-3.884-2.744c-0.28-1.023,0.635-1.391,1.791-1.4c1.535,0.26,3.119,0.916,3.632,2.77
		C1051.537,62.922,1050.604,63.387,1049.708,63.25z M1063.954,103.746c-0.217-0.123-0.404-0.422-0.464-0.672
		c-0.157-0.695,0.164-1.089,0.851-1.158c0.297,0.418,0.832,0.838,0.832,1.256C1065.169,103.865,1064.58,104.092,1063.954,103.746z
		 M1066.054,50.278c-0.047,0.736-0.721,2.054-1.095,2.049c-2.506-0.036-1.814-2.287-2.31-3.726c-0.022-0.869,0.068-2,1.039-1.975
		C1066.012,46.688,1066.163,48.569,1066.054,50.278z M1069.797,2.479c-0.603-0.167-0.829-0.554-0.563-1.106
		c0.086-0.188,0.454-0.431,0.57-0.378c0.391,0.178,0.724,0.479,1.079,0.734C1070.524,1.979,1070.161,2.229,1069.797,2.479z
		 M1076.512,133.191c-0.455-0.037-1.034-0.431-1.268-0.83c-0.491-0.837-0.136-1.513,0.763-1.88c0.907-0.047,1.652,0.328,1.833,1.203
		C1078.033,132.608,1077.481,133.271,1076.512,133.191z M1078.627,99.021c-0.607-0.344-1.051-0.984-1.566-1.494
		c0.363-0.261,0.727-0.521,1.259-0.903c0.454,0.549,1.095,1.04,1.316,1.679C1079.819,98.828,1079.152,99.315,1078.627,99.021z
		 M1086.267,32.085c-0.227-0.414-0.353-0.882-0.515-1.331c0.247-0.029,0.668-0.152,0.712-0.068c0.229,0.414,0.357,0.881,0.521,1.332
		C1086.735,32.047,1086.315,32.168,1086.267,32.085z M1098.799,152.708l0.318-0.421l0.205,0.493L1098.799,152.708z
		 M1104.657,121.943c-0.588,0.318-0.938,0.069-0.857-0.621c0.02-0.175,0.327-0.419,0.518-0.436c0.173-0.014,0.362,0.244,0.545,0.386
		C1104.798,121.503,1104.8,121.863,1104.657,121.943z M1105.302,103.91c-0.239-0.07-0.604-0.075-0.683-0.229
		c-0.082-0.163,0.101-0.465,0.17-0.707c0.235,0.07,0.599,0.078,0.679,0.23C1105.554,103.366,1105.37,103.67,1105.302,103.91z
		 M1118.372,154.399c-0.441,0.169-1.012,0.593-1.304,0.449c-0.526-0.253-0.448-0.863,0.051-1.278
		c0.188-0.158,0.477-0.311,0.701-0.286C1118.488,153.359,1118.665,153.772,1118.372,154.399z M1118.424,68.768l-0.305-0.361
		l0.484-0.082L1118.424,68.768z M1128.094,27.235l-0.264-0.404l0.466-0.032L1128.094,27.235z M1145.173,42.754
		c-0.394-0.027-0.753-0.561-1.128-0.869c0.094-0.656,0.479-0.926,1.12-0.721c0.233,0.074,0.491,0.272,0.597,0.486
		C1146.069,42.262,1145.829,42.801,1145.173,42.754z M1154.059,16.857c0.319-0.24,0.635-0.482,0.953-0.723l0.004,0.004
		C1154.697,16.38,1154.378,16.617,1154.059,16.857z M1158.687,96.297c-0.894-0.188-1.356-1.02-0.97-1.869
		c0.634-1.4,1.939-1.889,3.386-1.813c0.85,0.049,1.589,0.458,1.37,1.863C1161.881,95.971,1160.522,96.679,1158.687,96.297z
		 M1162.245,106.008l0.071-0.475l0.376,0.283L1162.245,106.008z M1168.018,64.197c-0.477,0.203-0.965,0.602-1.425,0.566
		c-0.683-0.054-0.877-0.682-0.335-1.075c0.368-0.271,1.002-0.204,1.521-0.235C1168.755,63.396,1168.835,63.66,1168.018,64.197z
		 M1168.571,63.607c0.56-0.57,1.115-1.143,1.673-1.713l0.037,0.035C1169.711,62.489,1169.141,63.048,1168.571,63.607z
		 M1170.377,7.754c-1.239-0.105-3.008,0.449-3.38-1.336c-0.269-1.301,0.987-1.696,2.113-1.857c1.447,0.028,2.897,0.502,3.299,1.869
		C1172.927,8.203,1171.297,7.831,1170.377,7.754z M1176.03,131.915c-0.139,0.145-0.513,0.25-0.666,0.163
		c-0.59-0.332-0.563-0.756,0.075-1.033c0.164-0.069,0.444,0.13,0.671,0.208C1176.09,131.48,1176.155,131.788,1176.03,131.915z
		 M1191.15,5.979c-0.401-0.168-0.802-0.339-1.203-0.508c0.231-0.383,0.383-0.965,0.711-1.085c0.298-0.112,0.781,0.276,1.186,0.446
		C1191.614,5.215,1191.383,5.596,1191.15,5.979z M1195.043,66.238c-0.292-0.354-0.771-0.688-0.81-1.068
		c-0.025-0.248,0.585-0.563,0.915-0.846c0.289,0.352,0.775,0.688,0.809,1.063C1195.981,65.643,1195.374,65.953,1195.043,66.238z
		 M1198.549,89.5l-0.379-0.285l0.449-0.193L1198.549,89.5z M1205.077,115.562c-0.363-0.316-1.042-0.662-1.019-0.945
		c0.04-0.427,0.494-1.007,0.907-1.162c0.591-0.219,1,0.238,1.067,0.904C1205.717,114.761,1205.395,115.159,1205.077,115.562z
		 M1231.613,14.851c-0.194-0.112-0.134-1.065,0.116-1.417c0.267-0.379,0.9-0.725,1.354-0.695c0.606,0.04,0.748,0.638,0.462,1.266
		C1233.075,14.711,1232.508,15.369,1231.613,14.851z M1234.735,156.329c-1.455-0.288-2.436-1.273-2.313-2.876
		c0.072-0.926,0.877-1.383,1.74-1.383c1.584,0,2.492,0.871,2.709,2.323C1236.748,155.827,1236.004,156.581,1234.735,156.329z
		 M1254.986,116.172l0.015-0.015L1254.986,116.172z M1256.383,90.533c-0.194,0.868-0.707,1.888-2.057,1.672
		c-0.982-0.154-1.117-1.117-0.899-1.948c0.272-1.039,0.603-2.3,2.035-2.024C1256.356,88.406,1256.481,89.393,1256.383,90.533z
		 M1270.772,101.348l-0.127-0.449l0.465,0.116L1270.772,101.348z M1273.272,22.74l0.367,0.166c0.77-0.227,1.529-0.5,2.316-0.666
		c0.693-0.145,1.811-0.664,1.914,0.357c0.08,0.795-1.13,0.932-1.91,0.853c-0.791-0.079-1.563-0.338-2.346-0.517L1273.272,22.74z
		 M1277.803,64.955c-1.8,0.344-2.38-1.143-2.418-2.59c-0.041-1.599-0.197-3.713,2.051-3.806c1.615-0.066,1.927,1.692,2.188,3.077
		C1279.617,63.084,1279.444,64.645,1277.803,64.955z M1281.34,112.424c-0.149-0.053-0.295-0.45-0.253-0.646
		c0.041-0.189,0.33-0.322,0.509-0.479c0.202,0.125,0.551,0.219,0.584,0.382C1282.321,112.343,1281.983,112.643,1281.34,112.424z
		 M1294.198,22.494c-0.343-0.158-0.471-0.786-0.693-1.211c0.434-0.161,0.865-0.322,1.299-0.482c0.222,0.422,0.446,0.844,0.668,1.267
		C1295.038,22.229,1294.495,22.629,1294.198,22.494z M1296.821,97.109c-0.214-0.392-0.655-0.852-0.565-1.15
		c0.104-0.332,0.688-0.52,1.062-0.77c0.211,0.387,0.654,0.846,0.563,1.143C1297.777,96.667,1297.196,96.856,1296.821,97.109z
		 M1302.836,112.922c-2.583-0.127-4.913-0.255-4.966-3.299c-0.026-1.494,1.026-2.64,2.491-2.789
		c3.141-0.321,3.206,2.168,3.655,4.309C1304.309,112.52,1304.017,113.181,1302.836,112.922z M1309.488,124.125
		c-0.681,0.475-1.153-0.679-1.464-1.355c-0.219-0.479-0.345-1.001-0.514-1.506c-4.135-1.629-3.325-5.23-3.377-8.491
		c2.246,2.376,3.162,5.29,3.399,8.472c0.405,0.342,0.85,0.652,1.21,1.035C1309.249,122.812,1310.198,123.626,1309.488,124.125z
		 M1324.411,57.521l0.27-0.379l0.202,0.433L1324.411,57.521z M1335.373,77.478l-0.132-0.503l0.518,0.13L1335.373,77.478z
		 M1354.964,92.434l0.011-0.01L1354.964,92.434z M1363.285,62.467c-0.181-0.016-0.454-0.338-0.471-0.537
		c-0.011-0.185,0.26-0.391,0.407-0.588c0.246,0.059,0.635,0.04,0.718,0.191C1364.284,62.146,1364.014,62.527,1363.285,62.467z
		 M1383.238,85.144c-0.322,0.555-0.733,0.549-1.026-0.015c-0.068-0.133,0.131-0.404,0.209-0.609c0.221,0.002,0.5-0.08,0.642,0.025
		C1383.201,84.648,1383.314,85.011,1383.238,85.144z M1393.886,117.924c-0.955-0.353-2.212-0.755-2.615-1.517
		c-0.537-1.023,0.658-1.176,1.37-0.998c1.233,0.308,2.645,0.44,3.225,1.877C1395.441,118.298,1394.561,118.173,1393.886,117.924z
		 M1505.628,2.17c0.118-0.35,0.881-0.775,1.214-0.68c0.373,0.105,0.593,0.76,0.878,1.175c-0.315,0.386-0.618,1.077-0.956,1.095
		C1505.752,3.811,1505.329,3.061,1505.628,2.17z M1416.425,138.22l0.069-0.477l0.379,0.285L1416.425,138.22z M1420.748,66.33
		c-0.06,0.409-0.565,0.915-0.981,1.072c-0.614,0.232-1.199-0.197-1.109-0.83c0.056-0.406,0.626-0.74,0.967-1.105
		C1420.295,65.394,1420.834,65.703,1420.748,66.33z M1423.484,99.87c0.151-0.063,0.528,0.122,0.618,0.292
		c0.094,0.174-0.041,0.465-0.075,0.706c-0.235,0.044-0.561,0.21-0.688,0.113C1422.791,100.571,1422.848,100.123,1423.484,99.87z
		 M1423.528,121.353c0.11-0.211,0.377-0.402,0.612-0.468c0.656-0.186,1.029,0.102,1.087,0.765c-0.386,0.296-0.76,0.829-1.154,0.84
		C1423.423,122.506,1423.204,121.951,1423.528,121.353z M1424.901,137.097c-0.597,0.053-0.829-0.291-0.58-0.859
		c0.061-0.138,0.424-0.269,0.571-0.211c0.169,0.067,0.245,0.353,0.362,0.541C1425.137,136.753,1425.033,137.086,1424.901,137.097z
		 M1426.234,32.244l-0.084-0.479l0.438,0.177L1426.234,32.244z M1430.991,40.859l0.244-0.482l0.277,0.453L1430.991,40.859z
		 M1456.515,40.439c-0.438-0.241-1.067-0.379-1.267-0.749c-0.335-0.614,0.041-1.097,0.749-1.095c0.235,0.002,0.529,0.204,0.693,0.4
		C1457.13,39.523,1457.044,40.025,1456.515,40.439z M1466.811,48.352c-1.484,2.009-3.197,3.746-5.663,4.517
		c-0.807,0.253-1.846,0.308-2.104-0.547c-0.179-0.577,0.268-1.635,0.779-2.079c1.99-1.72,4.552-1.629,6.979-1.896
		c0.295-0.698,0.588-1.396,0.88-2.097C1468.614,47.457,1467.062,47.634,1466.811,48.352z M1470.305,19.457
		c0.078-0.226,0.089-0.525,0.246-0.662c0.408-0.361,0.88-0.654,1.326-0.973l0.023,0.024l-0.023-0.026
		c0.54-0.463,1.08-0.926,1.619-1.389c0.454,1.582-1.095,0.906-1.596,1.415C1471.37,18.383,1470.836,18.92,1470.305,19.457z
		 M1474.221,98.805c-0.329,0.098-0.806-0.29-1.215-0.468c0.21-0.388,0.346-1.007,0.651-1.101c0.318-0.103,0.798,0.291,1.208,0.469
		C1474.659,98.096,1474.52,98.719,1474.221,98.805z M1478.651,78.845l0.041,0.042L1478.651,78.845z M1487.036,61.322l-0.076-0.537
		l0.48,0.199L1487.036,61.322z M1504.565,147.105c-3.794,0.122-6.071,2.317-7.804,5.428c-0.546,0.984-1.538,1.808-2.702,0.918
		c-0.998-0.766-0.844-1.99-0.428-3.059c1.467-3.778,5.226-5.943,10.134-5.904c1.084,0.108,2.481,0.017,2.661,1.372
		C1506.544,146.72,1505.397,147.077,1504.565,147.105z M1512.031,85.723l-0.379-0.301l0.446-0.169L1512.031,85.723z M1507.66,51.633
		c-0.487,1.258-1.957,0.807-2.648-0.24c-2.258-3.443,0.696-8.986,4.95-9.252c1.169-0.074,2.114,0.533,2.186,2.454
		C1509.534,45.949,1508.747,48.83,1507.66,51.633z M1522.708,90.754l0.045-0.044L1522.708,90.754z M1539.901,139.919
		c-0.033,0.194-0.487,0.6-1.034,0.297c-0.404-0.228-0.78-0.837-0.813-1.3c-0.026-0.41,0.468-1.226,0.692-1.212
		C1539.741,137.76,1540.046,138.517,1539.901,139.919z M1541.906,59.639c-0.355-0.24-0.685-0.824-0.663-1.236
		c0.032-0.617,0.647-0.9,1.174-0.544c0.352,0.24,0.476,0.81,0.701,1.233C1542.907,59.697,1542.424,59.992,1541.906,59.639z
		 M1553.777,24.588c-0.201-0.064-0.343-0.322-0.512-0.5c0.166-0.148,0.379-0.447,0.484-0.412c0.206,0.066,0.348,0.321,0.518,0.498
		C1554.098,24.322,1553.888,24.621,1553.777,24.588z M1568.956,157.579c-0.136,0.244-1.417,0.64-2.842,0.261
		c-1.324-0.353-1.686-1.411-0.887-2.509c0.884-1.215,2.207-1.67,3.627-0.984C1569.633,154.724,1570.015,155.491,1568.956,157.579z
		 M1579.274,130.659c-0.391,0.242-0.781,0.48-1.173,0.722c-0.054-0.447-0.169-0.899-0.136-1.34c0.015-0.155,0.383-0.401,0.592-0.404
		C1579.199,129.629,1579.438,130.017,1579.274,130.659z M1581.184,96.018c-0.157-0.011-0.407-0.385-0.409-0.595
		c-0.006-0.652,0.383-0.896,1.031-0.726c0.244,0.391,0.487,0.783,0.731,1.178C1582.084,95.934,1581.627,96.051,1581.184,96.018z
		 M1586.59,122.877c-0.743,0.009-0.965-0.412-0.545-1.044c0.099-0.153,0.479-0.12,0.729-0.17c0.115,0.228,0.352,0.472,0.321,0.677
		C1587.062,122.548,1586.77,122.875,1586.59,122.877z M1593.317,24.457c-0.333,0.537-0.743,0.504-1.009-0.087
		c-0.063-0.142,0.132-0.403,0.207-0.607c0.222,0.022,0.505-0.032,0.638,0.086C1593.292,23.967,1593.396,24.328,1593.317,24.457z
		 M1595.961,91.761c-0.321-0.351-0.646-0.704-0.969-1.056c0.476-0.138,0.947-0.334,1.435-0.379c0.172-0.016,0.519,0.319,0.547,0.523
		C1597.058,91.508,1596.671,91.816,1595.961,91.761z M1599.646,37.428c-0.386-0.266-0.774-0.529-1.157-0.795
		c0.342-0.303,0.675-0.84,1.021-0.848c0.386-0.008,0.779,0.47,1.165,0.734C1600.331,36.821,1599.989,37.124,1599.646,37.428z
		 M1620.79,90.943c-0.205-0.063-0.503-0.066-0.588-0.204c-0.094-0.147-0.064-0.51,0.057-0.622c0.468-0.436,0.851-0.309,0.939,0.309
		C1621.217,90.576,1620.935,90.77,1620.79,90.943z M1626.088,43.271l0.013-0.017L1626.088,43.271z M1632.514,28.893
		c-1.301,0.213-1.962-0.807-1.846-2.008c0.169-1.731,0.979-3.137,2.955-3.162c0.854-0.013,1.355,0.73,1.436,2.383
		C1635.026,27.113,1634.391,28.585,1632.514,28.893z M1637.038,113.945c-0.48-0.38-0.417-0.79,0.162-1.021
		c0.138-0.059,0.488,0.111,0.563,0.261c0.08,0.16-0.054,0.427-0.093,0.648C1637.454,113.878,1637.15,114.031,1637.038,113.945z
		 M1638.034,148.746c-0.113,0.125-0.407,0.084-0.621,0.117c-0.091-0.203-0.301-0.447-0.248-0.602c0.203-0.61,0.599-0.671,0.964-0.15
		C1638.222,148.247,1638.159,148.61,1638.034,148.746z M1649.02,37.311c-0.604,0.268-1.072-0.081-1.271-0.732
		c-0.101-0.701,0.194-1.123,0.885-1.119c0.229,0.002,0.535,0.221,0.679,0.429C1649.701,36.446,1649.616,37.048,1649.02,37.311z
		 M1658.18,136.21c-0.227,0.077-0.451,0.155-0.679,0.232c-0.036-0.225-0.177-0.582-0.089-0.654
		C1658.026,135.286,1658.299,135.453,1658.18,136.21z M1660.244,103.246c-0.291-0.329-0.831-0.684-0.802-0.986
		c0.034-0.355,0.56-0.662,0.874-0.992c0.288,0.332,0.825,0.688,0.795,0.989C1661.078,102.611,1660.553,102.92,1660.244,103.246z
		 M1674.393,18.566c-0.91,1.814-2.414,2.898-4.629,2.924c-0.3-0.325-0.984-0.795-0.913-1.027c0.671-2.104,2.78-2.397,4.429-3.178
		C1674.188,16.852,1674.862,17.635,1674.393,18.566z M1691.937,78.359c-0.083,0.175-0.416,0.353-0.613,0.328
		c-0.634-0.076-0.867-0.492-0.59-1.063c0.083-0.176,0.401-0.236,0.615-0.348C1691.971,77.408,1692.205,77.787,1691.937,78.359z
		 M1695.592,10.189l0.112-0.471l0.344,0.352L1695.592,10.189z M1710.517,62.757c-0.652,0.095-1.042-0.416-0.799-1.028
		c0.181-0.455,0.588-0.909,1.015-1.158c0.577-0.336,1.046-0.059,1.237,0.547C1711.9,62.031,1711.382,62.633,1710.517,62.757z
		 M1729.94,136.479c-0.657-0.394-1.395-1.072-1.564-1.758c-0.266-1.07,0.675-1.419,1.537-1.156c1.068,0.328,2.006,0.951,2.018,2.29
		C1731.532,136.903,1730.65,136.903,1729.94,136.479z M1736.524,70.275c-0.303,0.918-1.241,0.943-1.99,0.539
		c-0.413-0.224-0.923-0.801-0.906-1.197c0.041-0.955,0.737-1.312,1.683-1.098C1736.13,68.822,1736.816,69.396,1736.524,70.275z
		 M1742.229,95.152c-0.113,0.342-0.754,0.502-1.158,0.743c-0.668-0.155-0.826-0.532-0.398-1.075c0.14-0.181,0.401-0.309,0.631-0.369
		C1741.947,94.281,1742.423,94.592,1742.229,95.152z M1742.768,8.557c-0.297-0.119-0.574-1.027-0.424-1.398
		c0.442-1.108,1.324-1.832,2.586-1.342c0.288,0.111,0.311,0.92,0.451,1.408C1744.815,8.283,1744.038,9.063,1742.768,8.557z
		 M1748.852,30.516c-0.413-0.01-0.994-0.57-1.183-1.013c-0.33-0.782-0.321-1.634,0.825-2.082c0.857-0.062,1.376,0.544,1.561,1.415
		C1750.256,29.773,1749.871,30.538,1748.852,30.516z M1755.354,134.145c-0.154-0.158-0.479-0.394-0.443-0.466
		c0.313-0.688,0.66-0.69,0.945-0.077C1755.684,133.789,1755.518,133.967,1755.354,134.145z M1755.936,16.197
		c-0.451-0.178-0.939-0.438-1.23-0.803c-0.416-0.518-0.139-1.097,0.495-0.98c0.663,0.123,1.255,0.629,1.806,0.931
		C1756.92,16.166,1756.545,16.438,1755.936,16.197z M1762.88,42.859c-0.721-0.289-0.724-0.646,0.015-1.014
		c0.149,0.168,0.427,0.346,0.441,0.539C1763.347,42.543,1762.966,42.895,1762.88,42.859z M1771.302,8.645
		c-1.763,0.094-1.807-1.767-1.92-3.084c-0.116-1.345-0.198-3.137,1.582-3.229c1.747-0.086,1.821,1.695,2.027,3.057
		C1772.889,6.738,1773.019,8.555,1771.302,8.645z M1774.167,38.896c-0.111,0.21-0.374,0.406-0.605,0.474
		c-0.656,0.193-1.034-0.09-1.103-0.752c0.383-0.301,0.754-0.834,1.145-0.85C1774.258,37.739,1774.487,38.291,1774.167,38.896z
		 M1778.918,73.66c-0.158-0.107-0.166-0.426-0.244-0.652c0.23-0.037,0.532-0.18,0.67-0.086c0.154,0.105,0.165,0.427,0.236,0.654
		C1779.352,73.611,1779.055,73.754,1778.918,73.66z M1792.148,146.691l-0.346-0.188l0.368,0.166L1792.148,146.691z M1792.763,26.379
		l-0.235-0.416l0.485,0.006L1792.763,26.379z M1794.782,121.552l-0.338-0.404l0.537-0.077L1794.782,121.552z M1800.61,12.766
		l-0.161-0.381l0.202,0.341L1800.61,12.766z M1802.215,125.508l-0.334-0.335l0.453-0.133L1802.215,125.508z M1804,22.9
		c-0.481-0.181-1.313-0.275-1.387-0.562c-0.278-1.114,0.636-1.36,1.442-1.303c0.394,0.028,0.749,0.581,1.12,0.897
		C1804.786,22.257,1804.391,22.578,1804,22.9z M1817.315,45.723c-0.216,0.028-0.482,0.146-0.632,0.063
		c-0.158-0.092-0.33-0.422-0.274-0.568c0.211-0.587,0.615-0.643,0.996-0.139C1817.499,45.199,1817.352,45.502,1817.315,45.723z
		 M1818.81,30.38l0.375-0.302l0.054,0.483L1818.81,30.38z M1828.788,17.266c-0.083-0.012-0.105-0.432-0.152-0.661
		c0.468,0.015,0.943-0.003,1.4,0.082c0.086,0.015,0.102,0.433,0.139,0.609C1829.717,17.296,1829.245,17.33,1828.788,17.266z
		 M1832.835,50.061l-0.366,0.165l0.338-0.199c0.246-0.314,0.494-0.628,0.744-0.942C1833.312,49.408,1833.073,49.736,1832.835,50.061
		z M1841.081,92.541c-1.007,0.063-1.292-0.799-1.266-1.592c0.015-0.408,0.477-1.129,0.764-1.141
		c0.986-0.047,1.203,0.785,1.328,1.595C1841.633,91.803,1841.378,92.525,1841.081,92.541z M1856.834,72.302
		c-0.387-0.01-0.758-0.526-1.143-0.826c0.307-0.352,0.619-0.991,0.917-0.982c0.387,0.009,0.762,0.53,1.141,0.833
		C1857.445,71.677,1857.131,72.311,1856.834,72.302z M1868.801,99.609c-0.37-0.23-1.011-0.424-1.049-0.705
		c-0.058-0.412,0.311-0.887,0.496-1.332c0.369,0.229,0.737,0.463,1.107,0.693C1869.169,98.714,1868.986,99.163,1868.801,99.609z
		 M1885.211,16.404c0,0,0.428,0.014,0.473,0.014c0.061-0.056,0.448-0.119,0.54-0.158c0.274-0.121,0.485,0.121,0.889,0.289
		c9.476,1.455,10.099,16.889-1.901,16.889C1874.211,33.438,1874.211,16.404,1885.211,16.404z M1893.796,56.34
		c-2.05-0.318-1.907-2.373-2.041-3.97c-0.088-1.073-0.155-2.737,0.987-2.8c2.509-0.137,2.749,2.125,3.207,3.896
		C1895.87,54.991,1895.521,56.607,1893.796,56.34z M1899.133,147.229c-0.719,0.125-1.023-0.227-0.756-0.867
		c0.067-0.155,0.483-0.28,0.692-0.228c0.202,0.05,0.341,0.344,0.51,0.529C1899.431,146.86,1899.31,147.199,1899.133,147.229z
		 M1902.72,94.797c-0.266-0.359-0.76-0.728-0.741-1.076c0.015-0.313,0.58-0.599,0.904-0.895c0.27,0.359,0.535,0.721,0.805,1.082
		C1903.366,94.206,1903.043,94.5,1902.72,94.797z M1911.057,74.494c-0.624-0.152-0.975-0.611-0.635-1.088
		c0.234-0.329,0.895-0.557,1.309-0.492c0.278,0.043,0.465,0.683,0.693,1.054C1911.968,74.145,1911.51,74.318,1911.057,74.494z
		 M1912.282,20.164c-0.477,0.061-0.996,0.265-1.423,0.146c-0.623-0.168-0.792-0.791-0.31-1.185c0.319-0.261,0.968-0.31,1.396-0.192
		C1912.574,19.102,1912.657,19.621,1912.282,20.164z M1914.362,108.614l-0.265-0.405l0.469-0.033L1914.362,108.614z"/>
	<path fill="#EFA016" d="M718.723,92.984c-2.518,0-3.241,1.941-3.227,3.969c0.022,3.133,1.63,5.328,4.851,5.697
		c2.146,0.247,2.801-1.33,2.75-3.24C722.917,96.521,720.641,92.984,718.723,92.984z"/>
	<path fill="#EFA016" d="M27.374,126.845c-2.459,1.381-1.624,3.82-0.648,5.872c1.009,2.126,2.767,3.438,5.114,3.787
		c1.249,0.183,2.149-0.305,2.183-2.209c-0.643-1.37-1.376-3.161-2.301-4.847C30.798,127.766,29.688,125.545,27.374,126.845z"/>
	<path fill="#EFA016" d="M191.092,55.852c-1.637-0.534-3.049-1.224-4.018-2.721c-0.415-0.64-1.043-1.141-1.724-1.863
		c-0.647,0.816-1.357,1.362-1.597,2.067c-1.192,3.505-0.166,4.679,5.577,6.073c2.011,0.489,4.965,2.413,5.972-0.09
		C196.549,56.225,192.97,56.463,191.092,55.852z"/>
	<path fill="#EFA016" d="M1503.765,144.488c-4.908-0.039-8.667,2.126-10.134,5.904c-0.416,1.068-0.57,2.293,0.428,3.059
		c1.164,0.89,2.156,0.066,2.702-0.918c1.732-3.11,4.01-5.306,7.804-5.428c0.832-0.028,1.979-0.386,1.861-1.245
		C1506.247,144.505,1504.849,144.597,1503.765,144.488z"/>
	<path fill="#EFA016" d="M1509.961,42.141c-4.254,0.266-7.208,5.809-4.95,9.252c0.691,1.047,2.161,1.498,2.648,0.24
		c1.087-2.803,1.874-5.684,4.487-7.038C1512.076,42.674,1511.13,42.066,1509.961,42.141z"/>
	<path fill="#EFA016" d="M989.852,133.429c-1.597,0.191-2.99,0.823-2.826,2.495c0.249,2.551,2.1,3.887,4.499,4.197
		c1.653,0.212,2.724-0.873,2.6-2.509C993.926,135.043,992.344,133.659,989.852,133.429z"/>
	<path fill="#EFA016" d="M615.799,17.944c-2.524-0.055-4.356,1.097-4.508,3.829c-0.082,1.484,0.753,2.969,2.253,3.094
		c3.084,0.26,3.093-2.531,3.846-4.357C617.522,19.125,617.173,17.976,615.799,17.944z"/>
	<path fill="#EFA016" d="M630.394,36.754c0.301-1.589-1.361-2.258-2.553-2.895c-0.958-0.512-2.059-0.762-2.655-0.972
		c-2.784,0.104-4.038,1.531-4.738,3.472c-0.255,0.701-0.354,1.977,0.042,2.301c1.651,1.354,3.042-0.376,4.577-0.701
		c0.814-0.174,1.637-0.308,2.461-0.424C628.543,37.393,630.132,38.112,630.394,36.754z"/>
	<path fill="#EFA016" d="M333.518,86.604c-1.49-0.749-2.391,0.979-3.303,1.938c-1.661,1.749-2.536,3.779-1.288,6.133
		c0.366,0.688,1.072,1.198,1.53,1.687c1.237-0.149,1.533-0.922,1.737-1.748c0.405-1.641,0.779-3.289,1.177-4.932
		C333.624,88.628,334.546,87.119,333.518,86.604z"/>
	<path fill="#EFA016" d="M1277.436,58.56c-2.248,0.093-2.092,2.207-2.051,3.806c0.038,1.447,0.618,2.934,2.418,2.59
		c1.641-0.311,1.813-1.871,1.821-3.318C1279.363,60.252,1279.051,58.493,1277.436,58.56z"/>
	<path fill="#EFA016" d="M349.969,151.755c-2.13,1.563-1.683,3.864-1.465,6.004c0.128,1.254,1.119,2.038,2.367,1.464
		c2.088-0.959,2.593-2.794,1.959-4.882C352.428,153.016,351.791,151.743,349.969,151.755z"/>
	<path fill="#EFA016" d="M948.174,52.486c-1.655-0.266-3.315-0.502-4.973-0.75l-0.008,0.008c-0.367,6.547-0.181,6.72,5.232,4.377
		c1.503-0.648,4.078-1.049,3.887-2.688C952.032,51,949.629,52.721,948.174,52.486z"/>
	<path fill="#EFA016" d="M1304.017,111.143c-0.449-2.141-0.515-4.63-3.655-4.309c-1.465,0.149-2.518,1.295-2.491,2.789
		c0.053,3.044,2.383,3.172,4.966,3.299C1304.017,113.181,1304.309,112.52,1304.017,111.143z"/>
	<path fill="#EFA016" d="M1633.624,23.723c-1.977,0.025-2.786,1.431-2.955,3.162c-0.116,1.201,0.545,2.221,1.846,2.008
		c1.877-0.308,2.512-1.779,2.545-2.787C1634.979,24.453,1634.477,23.71,1633.624,23.723z"/>
	<path fill="#EFA016" d="M1892.743,49.57c-1.143,0.063-1.075,1.727-0.987,2.8c0.134,1.597-0.009,3.651,2.041,3.97
		c1.725,0.268,2.073-1.349,2.153-2.873C1895.492,51.695,1895.251,49.434,1892.743,49.57z"/>
	<path fill="#EFA016" d="M397.557,72.086c-0.829,0.119-1.676,0.164-2.484,0.373c-1.633,0.422-3.469,0.824-3.16,3.102
		c0.164,1.211,1.259,1.84,2.44,1.919c2.011,0.137,3.128-0.967,3.354-2.896c0.099-0.816-0.091-1.666-0.15-2.5V72.086z"/>
	<path fill="#EFA016" d="M1770.964,2.332c-1.78,0.092-1.698,1.884-1.582,3.229c0.113,1.317,0.157,3.178,1.92,3.084
		c1.717-0.09,1.587-1.906,1.689-3.256C1772.786,4.027,1772.711,2.246,1770.964,2.332z"/>
	<path fill="#EFA016" d="M191.154,147.612c-1.503,0.391-2.106,1.722-2.088,3.196c0.015,1.237,0.688,2.207,2.036,1.88
		c1.546-0.375,1.994-1.729,2.094-3.193C193.05,148.275,192.516,147.255,191.154,147.612z"/>
	<path fill="#EFA016" d="M253.302,37.864c-1.189-0.378-2.322,0.014-2.526,1.31c-0.246,1.549,0.752,2.609,2.146,3.106
		c1.191,0.425,2.128-0.014,2.533-1.356C255.507,39.395,254.755,38.324,253.302,37.864z"/>
	<path fill="#EFA016" d="M768.852,115.008c-2.263-0.039-2.174,2.106-2.384,3.684c-0.153,1.134,0.105,2.634,1.35,2.703
		c2.512,0.141,2.027-2.08,2.309-3.546C770.011,116.676,770.071,115.029,768.852,115.008z"/>
	<path fill="#EFA016" d="M833.153,55.809c-1.375,0.063-1.541,0.982-1.241,1.762c0.721,1.873-0.532,4.992,2.868,5.227
		c1.385,0.095,3.152-0.578,2.734-2.376C836.984,58.138,835.117,56.719,833.153,55.809z"/>
	<path fill="#EFA016" d="M67.586,39.02c-2.271,0.357-2.936,2.286-3.671,4.07c-0.323,0.781-0.37,1.91,0.44,2.219
		c1.774,0.673,2.348-0.957,3.008-2.088c0.549-0.942,0.868-2.019,1.256-2.953C68.193,39.732,67.828,38.981,67.586,39.02z"/>
	<path fill="#EFA016" d="M699.483,82.477c-1.565-0.01-2.768,0.666-3.256,2.155c-0.449,1.37,0.325,2.225,1.68,2.187
		c1.554-0.042,2.657-0.945,2.918-2.531C700.98,83.357,700.417,82.725,699.483,82.477z"/>
	<path fill="#EFA016" d="M805.174,67.23c-1.136,0.296-1.957,0.965-1.867,2.191c0.094,1.326,1.109,1.755,2.275,1.582
		c1.158-0.172,1.975-0.922,1.871-2.15C807.343,67.559,806.375,67.156,805.174,67.23z"/>
	<path fill="#EFA016" d="M12.301,139.631c-1.207,0.005-2.294,0.374-2.622,1.619c-0.354,1.351,0.521,2.138,1.744,2.299
		c1.465,0.193,2.979-0.104,3.112-1.9C14.631,140.371,13.501,139.811,12.301,139.631z"/>
	<path fill="#EFA016" d="M538.212,113.232c-1.95,0.438-2.441,2.182-2.515,3.9c-0.032,0.716,0.588,2.103,0.842,2.088
		c2.674-0.172,2.432-2.551,3.013-4.222C539.551,113.99,539.124,113.03,538.212,113.232z"/>
	<path fill="#EFA016" d="M1161.103,92.615c-1.446-0.076-2.752,0.412-3.386,1.813c-0.387,0.85,0.076,1.682,0.97,1.869
		c1.835,0.382,3.194-0.326,3.786-1.818C1162.692,93.073,1161.953,92.664,1161.103,92.615z"/>
	<path fill="#EFA016" d="M1063.689,46.627c-0.971-0.025-1.062,1.105-1.039,1.975c0.495,1.438-0.196,3.689,2.31,3.726
		c0.374,0.005,1.048-1.313,1.095-2.049C1066.163,48.569,1066.012,46.688,1063.689,46.627z"/>
	<path fill="#EFA016" d="M378.591,22.875c-1.114,0.488-1.289,1.721-1.233,2.852c0.059,1.196,0.507,2.131,1.989,2.068
		c1.511-0.633,1.912-1.881,1.562-3.352C380.639,23.313,379.928,22.289,378.591,22.875z"/>
	<path fill="#EFA016" d="M1459.824,50.242c-0.512,0.444-0.958,1.502-0.779,2.079c0.258,0.854,1.297,0.8,2.104,0.547
		c2.466-0.771,4.179-2.508,5.663-4.517l-0.008-0.006C1464.375,48.613,1461.814,48.522,1459.824,50.242z"/>
	<path fill="#EFA016" d="M37.583,69.201c-1.302,0.05-1.644,1.193-1.556,2.34c0.088,1.137,0.596,2.146,1.825,2.274
		c1.278,0.132,1.863-0.769,2.07-2.101C39.733,70.444,39.247,69.139,37.583,69.201z"/>
	<path fill="#EFA016" d="M1047.616,59.105c-1.156,0.01-2.071,0.377-1.791,1.4c0.514,1.861,2.168,2.486,3.884,2.744
		c0.896,0.137,1.828-0.328,1.539-1.375C1050.735,60.021,1049.151,59.365,1047.616,59.105z"/>
	<path fill="#EFA016" d="M1568.854,154.347c-1.42-0.686-2.743-0.23-3.627,0.984c-0.799,1.098-0.438,2.156,0.887,2.509
		c1.425,0.379,2.706-0.017,2.842-0.261C1570.015,155.491,1569.633,154.724,1568.854,154.347z"/>
	<path fill="#EFA016" d="M1234.163,152.07c-0.863,0-1.668,0.457-1.74,1.383c-0.123,1.603,0.857,2.588,2.313,2.876
		c1.27,0.252,2.013-0.502,2.137-1.936C1236.655,152.941,1235.747,152.07,1234.163,152.07z"/>
	<path fill="#EFA016" d="M205.385,68.073c-1.398,0.165-1.73,1.196-1.747,2.338c-0.015,1.089,0.039,2.448,1.432,2.542
		c1.342,0.092,1.737-1.146,1.797-2.282C206.927,69.539,206.674,68.482,205.385,68.073z"/>
	<path fill="#EFA016" d="M214.178,1.618c1.08,2.672,3.287,4.342,5.451,6.043l0.002-0.001c-0.563-2.712-1.296-5.356-3.121-7.537
		c-0.035-0.041-0.072-0.082-0.108-0.123h-2.417C213.821,0.495,213.966,1.096,214.178,1.618z"/>
	<path fill="#EFA016" d="M604.208,0h-3.332c0.379,0.396,1.021,0.722,1.522,0.799C603.239,0.928,603.875,0.621,604.208,0z"/>
	<path fill="#EFA016" d="M583.214,1.122c-1.613,1.094-1.627,2.815-1.367,4.519c0.121,0.795,0.336,1.651,1.526,1.654
		c1.482-1.445,1.706-3.395,1.654-5.326C585.002,1.037,584.073,0.537,583.214,1.122z"/>
	<path fill="#EFA016" d="M145.705,58.158c-1.171,0.177-1.855,1.049-1.898,2.189c-0.049,1.271,0.714,2.018,1.986,1.646
		c1.123-0.327,1.552-1.319,1.497-2.482C147.123,58.633,146.608,58.02,145.705,58.158z"/>
	<path fill="#EFA016" d="M867.42,150.288c-1.414-0.2-1.818,0.82-1.589,2.013c0.207,1.083,0.802,2.046,2.059,1.99
		c0.905-0.042,1.226-0.834,1.288-1.683C869.066,151.472,868.592,150.454,867.42,150.288z"/>
	<path fill="#EFA016" d="M668.485,145.325c-0.94-0.114-1.649,0.386-1.672,1.389c-0.022,0.912,0.466,1.574,1.417,1.791
		c0.943-0.014,1.664-0.402,1.683-1.411C669.935,146.182,669.436,145.439,668.485,145.325z"/>
	<path fill="#EFA016" d="M122.37,102.554c-0.05-0.935-0.594-1.478-1.471-1.5c-1.166-0.028-2.09,0.585-2.299,1.737
		c-0.23,1.284,0.55,2.012,1.811,1.869C121.553,104.53,122.25,103.754,122.37,102.554z"/>
	<path fill="#EFA016" d="M291.049,16.1c1.189,0.021,2.136-0.499,2.609-1.557c0.38-0.846-0.023-1.668-0.944-1.818
		c-1.182-0.191-2.106,0.473-2.575,1.535C289.767,15.107,290.116,15.797,291.049,16.1z"/>
	<path fill="#EFA016" d="M1673.28,17.285c-1.648,0.78-3.758,1.074-4.429,3.178c-0.071,0.232,0.613,0.702,0.913,1.027
		c2.215-0.025,3.719-1.109,4.629-2.924C1674.862,17.635,1674.188,16.852,1673.28,17.285z"/>
	<path fill="#EFA016" d="M503.855,39.75c-0.862,0.229-1.241,1.066-1.092,1.929c0.198,1.133,0.738,2.161,2.132,1.776
		c0.838-0.234,1.125-1.086,1.121-1.964C505.769,40.322,505.229,39.387,503.855,39.75z"/>
	<path fill="#EFA016" d="M1169.111,4.561c-1.126,0.161-2.382,0.557-2.113,1.857c0.372,1.785,2.141,1.23,3.38,1.336
		c0.92,0.077,2.55,0.449,2.032-1.324C1172.008,5.063,1170.558,4.589,1169.111,4.561z"/>
	<path fill="#EFA016" d="M689.474,17.049c-0.837,0.684-1.469,1.621-2.189,2.445l0.061,0.066c1.093,0.111,2.185,0.286,3.283,0.314
		c1.12,0.027,2.249-0.199,2.75-1.352c0.174-0.406,0.068-1.195-0.228-1.496C691.981,15.832,690.623,16.113,689.474,17.049z"/>
	<path fill="#EFA016" d="M388.467,84.564c-0.94-0.069-1.378,0.713-1.335,1.586c0.042,0.85,0.518,1.641,1.383,1.705
		c0.94,0.068,1.3-0.722,1.356-1.595C389.754,85.4,389.332,84.631,388.467,84.564z"/>
	<path fill="#EFA016" d="M650.662,70.1c-1.233-0.094-1.863,0.449-1.896,1.387c-0.045,1.201,0.573,2.178,1.657,2.703
		c0.893,0.438,1.697,0.107,1.874-0.889C652.578,71.758,652.009,70.572,650.662,70.1z"/>
	<path fill="#EFA016" d="M576.959,46.729c-0.899,0.119-1.41,0.81-1.442,1.68c-0.037,0.979,0.599,1.391,0.484,1.396
		c2.021-0.199,2.456-0.896,2.502-1.741C578.556,47.079,577.877,46.607,576.959,46.729z"/>
	<path fill="#EFA016" d="M814.615,159.189c-0.36-1.17-1.056-1.984-2.368-1.61c-0.911,0.261-1.139,1.142-0.945,1.996
		c0.034,0.147,0.074,0.29,0.122,0.425h3.179C814.644,159.744,814.647,159.47,814.615,159.189z"/>
	<path fill="#EFA016" d="M317.401,2.576c0.918,0.023,1.617-0.417,1.831-1.266c0.127-0.511,0.02-0.975-0.263-1.311h-2.335
		c-0.174,0.2-0.307,0.447-0.376,0.735C316.044,1.618,316.522,2.272,317.401,2.576z"/>
	<path fill="#EFA016" d="M640.922,145.899c-1.001-0.173-1.504,0.602-1.619,1.469c-0.113,0.901,0.285,1.741,1.329,1.556
		c0.893-0.158,1.252-0.993,1.257-1.908C641.574,146.626,641.3,145.96,640.922,145.899z"/>
	<path fill="#EFA016" d="M1748.495,27.421c-1.146,0.448-1.155,1.3-0.825,2.082c0.188,0.442,0.77,1.003,1.183,1.013
		c1.019,0.022,1.404-0.742,1.203-1.68C1749.871,27.965,1749.352,27.359,1748.495,27.421z"/>
	<path fill="#EFA016" d="M1729.913,133.564c-0.862-0.263-1.803,0.086-1.537,1.156c0.17,0.686,0.907,1.364,1.564,1.758
		c0.71,0.425,1.592,0.425,1.99-0.624C1731.918,134.516,1730.981,133.893,1729.913,133.564z"/>
	<path fill="#EFA016" d="M1506.764,3.76c0.338-0.018,0.641-0.709,0.956-1.095c-0.285-0.415-0.505-1.069-0.878-1.175
		c-0.333-0.096-1.096,0.33-1.214,0.68C1505.329,3.061,1505.752,3.811,1506.764,3.76z"/>
	<path fill="#EFA016" d="M905.196,70.358c-0.644-1.368-1.758-2.208-3.216-2.316c-1.055-0.075-1.445,0.813-0.981,1.662
		c0.709,1.292,1.885,2.038,3.434,1.872C905.1,71.505,905.347,71.016,905.196,70.358z"/>
	<path fill="#EFA016" d="M475.744,1.041c-0.853-0.041-1.511,0.541-1.651,1.396c-0.158,0.946,0.421,1.61,1.324,1.286
		c0.615-0.222,1.026-1.02,1.493-1.521C476.423,1.691,476.096,1.057,475.744,1.041z"/>
	<path fill="#EFA016" d="M58.451,25.15c-0.958-0.367-1.475,0.275-1.548,1.17c-0.07,0.861,0.335,1.525,1.21,1.815
		c0.928-0.219,1.34-0.866,1.163-1.743C59.181,25.928,58.838,25.299,58.451,25.15z"/>
	<path fill="#EFA016" d="M317.685,26.554c-0.823-0.187-1.71,0.12-1.907,0.98c-0.227,0.989,0.589,1.298,1.443,1.372
		c0.812-0.16,1.632-0.434,1.528-1.425C318.711,27.127,318.107,26.649,317.685,26.554z"/>
	<path fill="#EFA016" d="M472.729,55.754c-0.781-0.455-1.603-0.232-1.858,0.684c-0.246,0.873,0.336,1.469,1.055,1.787
		c0.998,0.113,1.681-0.229,1.608-1.225C473.502,56.557,473.12,55.98,472.729,55.754z"/>
	<path fill="#EFA016" d="M293.048,60.064c-1.607,0.657-3.054,1.564-3.419,3.399c-0.124,0.622,0.53,0.851,1.364,0.468
		c1.26-0.801,3.013-1.383,3.328-3.297C294.413,60.079,293.695,59.799,293.048,60.064z"/>
	<path fill="#EFA016" d="M1735.31,68.52c-0.945-0.214-1.642,0.143-1.683,1.098c-0.017,0.396,0.493,0.974,0.906,1.197
		c0.749,0.404,1.688,0.379,1.99-0.539C1736.816,69.396,1736.13,68.822,1735.31,68.52z"/>
	<path fill="#EFA016" d="M1255.462,88.232c-1.433-0.275-1.763,0.985-2.035,2.024c-0.218,0.831-0.083,1.794,0.899,1.948
		c1.35,0.216,1.862-0.804,2.057-1.672C1256.481,89.393,1256.356,88.406,1255.462,88.232z"/>
	<path fill="#EFA016" d="M860.253,96.589c-0.603,0.168-1.161,1.013-1.435,1.682c-0.293,0.721-0.203,1.58,0.788,1.927
		c1.359-0.047,1.766-1.051,1.907-2.127C861.625,97.236,861.199,96.326,860.253,96.589z"/>
	<path fill="#EFA016" d="M359.378,113.84c-1.027-0.186-1.349,0.837-1.367,1.691c-0.027,1.167,0.295,2.403,1.537,2.684
		c1.08,0.243,1.196-0.835,1.284-1.678C360.688,115.444,360.756,114.092,359.378,113.84z"/>
	<path fill="#EFA016" d="M43.601,115.034c-0.948-0.083-1.63,0.563-1.324,1.462c0.222,0.648,0.936,1.295,1.589,1.591
		c0.815,0.371,1.533-0.08,1.829-1.003C45.553,115.836,44.787,115.138,43.601,115.034z"/>
	<path fill="#EFA016" d="M1392.641,115.409c-0.712-0.178-1.907-0.025-1.37,0.998c0.403,0.762,1.66,1.164,2.615,1.517
		c0.675,0.249,1.555,0.374,1.979-0.638C1395.286,115.85,1393.875,115.717,1392.641,115.409z"/>
	<path fill="#EFA016" d="M653.314,130.341c-0.915,0.094-1.377,0.965-0.894,1.755c0.372,0.599,1.141,1.153,1.826,1.298
		c0.832,0.18,1.495-0.361,1.455-1.367C655.363,130.807,654.46,130.222,653.314,130.341z"/>
	<path fill="#EFA016" d="M1076.007,130.481c-0.898,0.367-1.254,1.043-0.763,1.88c0.233,0.399,0.813,0.793,1.268,0.83
		c0.969,0.08,1.521-0.583,1.328-1.507C1077.66,130.81,1076.915,130.435,1076.007,130.481z"/>
	<path fill="#EFA016" d="M467.437,144.648c-0.598,0.377-1.202,1.129-1.315,1.794c-0.159,0.932,0.631,1.334,1.554,1.309
		c1.092-0.413,1.925-1.114,1.648-2.367C469.115,144.424,468.164,144.197,467.437,144.648z"/>
	<path fill="#EFA016" d="M702.604,157.654c-0.609,0.277-1.088,1.134-1.335,1.835c-0.062,0.177-0.086,0.347-0.088,0.511h2.644
		c0.122-0.325,0.185-0.688,0.194-1.076C704.041,158.042,703.547,157.224,702.604,157.654z"/>
	<path fill="#EFA016" d="M1744.93,5.816c-1.262-0.49-2.144,0.233-2.586,1.342c-0.15,0.371,0.127,1.279,0.424,1.398
		c1.27,0.506,2.047-0.273,2.613-1.332C1745.241,6.736,1745.218,5.928,1744.93,5.816z"/>
	<path fill="#EFA016" d="M307.532,1.586c-1.165,0.412-1.849,1.246-1.726,2.512c0.066,0.662,0.602,0.883,1.262,0.698
		c1.121-0.466,1.877-1.229,1.735-2.515C308.728,1.624,308.174,1.359,307.532,1.586z"/>
	<path fill="#EFA016" d="M253.565,3.799c0.394,0.111,1.245-0.199,1.349-0.502c0.323-0.953-0.367-1.498-1.174-1.869
		c-0.474,0.172-1.265,0.239-1.365,0.541C252.051,2.926,252.739,3.567,253.565,3.799z"/>
	<path fill="#EFA016" d="M1204.965,113.454c-0.413,0.155-0.867,0.735-0.907,1.162c-0.023,0.283,0.655,0.629,1.019,0.945
		c0.318-0.402,0.641-0.801,0.956-1.203C1205.965,113.692,1205.556,113.235,1204.965,113.454z"/>
	<path fill="#EFA016" d="M1419.624,65.467c-0.341,0.365-0.911,0.699-0.967,1.105c-0.09,0.633,0.495,1.063,1.109,0.83
		c0.416-0.157,0.922-0.663,0.981-1.072C1420.834,65.703,1420.295,65.394,1419.624,65.467z"/>
	<path fill="#EFA016" d="M1025.875,15.607c0.067,0.328,0.854,0.744,1.284,0.714c0.856-0.06,1.572-0.514,1.522-1.58
		c-0.446-0.247-0.913-0.723-1.349-0.695C1026.471,14.1,1025.667,14.584,1025.875,15.607z"/>
	<path fill="#EFA016" d="M1304.133,112.772c0.052,3.261-0.758,6.862,3.377,8.491l0.022-0.02
		C1307.295,118.063,1306.379,115.148,1304.133,112.772z"/>
	<path fill="#EFA016" d="M1013.217,26.201c-0.411,0.271-1.15,0.523-1.17,0.813c-0.063,1.272,0.75,2.016,1.95,2.129
		c0.375,0.035,1.116-0.481,1.157-0.812C1015.327,26.976,1014.361,26.464,1013.217,26.201z"/>
	<path fill="#EFA016" d="M937.033,26.043c-0.27,0.413-0.771,0.836-0.754,1.236c0.05,1.164,0.565,2.172,1.886,2.275
		c0.626,0.051,0.93-0.511,0.793-1.178C938.73,27.27,938.352,26.262,937.033,26.043z"/>
	<path fill="#EFA016" d="M930.65,97.844c-0.245-0.133-1.107,0.294-1.227,0.629c-0.397,1.109-0.071,2.109,0.967,2.795
		c0.428-0.208,1.143-0.333,1.23-0.645C931.943,99.532,931.749,98.426,930.65,97.844z"/>
	<path fill="#EFA016" d="M588.532,43.896c-2.054,1.349-1.001,3.487-1.213,5.315c-0.03,0.273,0.015,0.555,0.024,0.833l0.005,0.003
		c1.566-1.504,3.756-2.75,2.505-5.488C589.686,44.191,588.751,43.751,588.532,43.896z"/>
	<path fill="#EFA016" d="M891.362,115.595c0.021-0.388-0.444-0.799-0.699-1.2c-0.318,0.324-0.877,0.635-0.893,0.973
		c-0.022,0.385,0.438,0.799,0.688,1.194C890.782,116.241,891.344,115.93,891.362,115.595z"/>
	<path fill="#EFA016" d="M1598.489,36.633c0.383,0.266,0.771,0.529,1.157,0.795c0.343-0.304,0.685-0.606,1.028-0.908
		c-0.386-0.265-0.779-0.742-1.165-0.734C1599.164,35.793,1598.831,36.33,1598.489,36.633z"/>
	<path fill="#EFA016" d="M796.817,115.705c-0.979-0.053-1.557,0.389-1.283,0.838c0.346,0.577,1.072,1.022,1.729,1.283
		c0.574,0.225,1.188-0.338,0.933-0.826C797.883,116.398,797.164,116.011,796.817,115.705z"/>
	<path fill="#EFA016" d="M1541.243,58.402c-0.021,0.412,0.308,0.996,0.663,1.236c0.519,0.354,1.001,0.059,1.212-0.547
		c-0.226-0.424-0.35-0.993-0.701-1.233C1541.89,57.502,1541.275,57.785,1541.243,58.402z"/>
	<path fill="#EFA016" d="M1330.602,0h-0.161c0.024,0.025,0.055,0.052,0.077,0.077C1330.546,0.052,1330.574,0.025,1330.602,0z"/>
	<path fill="#EFA016" d="M511.883,46.758c-0.057,0.352,0.349,1.092,0.607,1.121c0.857,0.103,1.468-0.483,1.606-1.291
		c0.059-0.345-0.389-0.777-0.604-1.167C512.602,45.447,512.014,45.949,511.883,46.758z"/>
	<path fill="#EFA016" d="M1855.692,71.476c0.385,0.3,0.756,0.816,1.143,0.826c0.297,0.009,0.61-0.625,0.915-0.976
		c-0.379-0.303-0.754-0.824-1.141-0.833C1856.311,70.484,1855.999,71.124,1855.692,71.476z"/>
	<path fill="#EFA016" d="M1911.731,72.914c-0.414-0.064-1.074,0.163-1.309,0.492c-0.34,0.477,0.011,0.936,0.635,1.088
		c0.453-0.176,0.911-0.35,1.367-0.526C1912.196,73.597,1912.009,72.957,1911.731,72.914z"/>
	<path fill="#EFA016" d="M1691.349,77.277c-0.214,0.111-0.532,0.172-0.615,0.348c-0.277,0.57-0.044,0.986,0.59,1.063
		c0.197,0.024,0.53-0.153,0.613-0.328C1692.205,77.787,1691.971,77.408,1691.349,77.277z"/>
	<path fill="#EFA016" d="M1410.62,160h1.885c-0.325-0.285-0.655-0.671-0.97-0.661C1411.223,159.349,1410.921,159.708,1410.62,160z"
		/>
	<path fill="#EFA016" d="M560.287,84.122c0.448,0.187,0.919,0.554,1.332,0.497c0.279-0.039,0.473-0.679,0.705-1.051
		c-0.446-0.184-0.894-0.367-1.342-0.551C560.748,83.386,560.518,83.753,560.287,84.122z"/>
	<path fill="#EFA016" d="M1293.504,21.283c0.223,0.425,0.351,1.053,0.693,1.211c0.297,0.135,0.84-0.265,1.273-0.427
		c-0.222-0.423-0.446-0.845-0.668-1.267C1294.37,20.961,1293.938,21.122,1293.504,21.283z"/>
	<path fill="#EFA016" d="M1911.946,18.934c-0.429-0.117-1.077-0.068-1.396,0.192c-0.482,0.394-0.313,1.017,0.31,1.185
		c0.427,0.118,0.946-0.086,1.423-0.146C1912.657,19.621,1912.574,19.102,1911.946,18.934z"/>
	<path fill="#EFA016" d="M952.78,89.41c0.448,1.674,1.707,0.787,2.479,0.361c1.155-0.641,2.134-1.603,3.188-2.428
		c-1.322,0.223-2.684,0.322-3.96,0.711C953.811,88.261,952.702,89.115,952.78,89.41z"/>
	<path fill="#EFA016" d="M1840.579,89.809c-0.287,0.012-0.749,0.732-0.764,1.141c-0.026,0.793,0.259,1.654,1.266,1.592
		c0.298-0.016,0.553-0.738,0.826-1.138C1841.782,90.594,1841.565,89.762,1840.579,89.809z"/>
	<path fill="#EFA016" d="M664.52,49.555c-0.313-0.076-1.033,0.406-1.133,0.754c-0.222,0.809,0.071,1.561,0.948,1.934
		c0.395-0.267,1.042-0.463,1.144-0.817C665.715,50.612,665.422,49.773,664.52,49.555z"/>
	<path fill="#EFA016" d="M555.992,95.949c-0.626,0.053-0.876,0.461-0.637,1.04c0.075,0.178,0.39,0.255,0.596,0.38
		c0.625-0.113,0.878-0.488,0.638-1.064C556.513,96.126,556.187,95.935,555.992,95.949z"/>
	<path fill="#EFA016" d="M1078.32,96.624c-0.532,0.382-0.896,0.643-1.259,0.903c0.516,0.51,0.959,1.15,1.566,1.494
		c0.524,0.294,1.191-0.193,1.009-0.719C1079.415,97.664,1078.774,97.173,1078.32,96.624z"/>
	<path fill="#EFA016" d="M322.341,11.922c-0.86,0.106-1.565,0.52-1.634,1.4c-0.026,0.34,0.53,1.005,0.86,1.033
		c0.855,0.068,1.554-0.465,1.61-1.35C323.199,12.664,322.637,12.283,322.341,11.922z"/>
	<path fill="#EFA016" d="M1867.752,98.904c0.038,0.281,0.679,0.475,1.049,0.705c0.185-0.446,0.368-0.896,0.555-1.344
		c-0.37-0.23-0.738-0.465-1.107-0.693C1868.063,98.018,1867.695,98.492,1867.752,98.904z"/>
	<path fill="#EFA016" d="M175.627,141.389c0.199,0.438,0.398,0.87,0.598,1.306c0.422-0.194,1.128-0.324,1.194-0.604
		c0.086-0.368-0.33-0.856-0.531-1.294C176.467,140.992,176.047,141.189,175.627,141.389z"/>
	<path fill="#EFA016" d="M149.757,37.488c-0.105,0.297,0.359,0.799,0.573,1.209c0.402-0.267,0.802-0.533,1.205-0.801
		c-0.213-0.41-0.426-0.822-0.639-1.231C150.495,36.932,149.888,37.124,149.757,37.488z"/>
	<path fill="#EFA016" d="M598.708,19.755c-0.567-0.272-0.952-0.043-1.095,0.571c0.113,0.209,0.175,0.527,0.351,0.61
		c0.57,0.272,0.993,0.048,1.079-0.575C599.068,20.172,598.883,19.84,598.708,19.755z"/>
	<path fill="#EFA016" d="M601.43,52.23c-0.403,0.02-0.782,0.506-1.173,0.789c0.318,0.32,0.648,0.904,0.953,0.894
		c0.398-0.015,0.779-0.502,1.19-0.803C602.072,52.793,601.736,52.217,601.43,52.23z"/>
	<path fill="#EFA016" d="M1063.49,103.074c0.06,0.25,0.247,0.549,0.464,0.672c0.626,0.346,1.216,0.119,1.219-0.574
		c0-0.418-0.535-0.838-0.832-1.256C1063.654,101.985,1063.333,102.379,1063.49,103.074z"/>
	<path fill="#EFA016" d="M1660.316,101.268c-0.314,0.33-0.84,0.637-0.874,0.992c-0.029,0.303,0.511,0.657,0.802,0.986
		c0.31-0.326,0.834-0.635,0.867-0.989C1661.141,101.955,1660.604,101.6,1660.316,101.268z"/>
	<path fill="#EFA016" d="M1648.633,35.459c-0.69-0.004-0.985,0.418-0.885,1.119c0.199,0.651,0.668,1,1.271,0.732
		c0.596-0.263,0.681-0.864,0.292-1.423C1649.168,35.68,1648.863,35.461,1648.633,35.459z"/>
	<path fill="#EFA016" d="M1233.544,14.004c0.286-0.628,0.145-1.226-0.462-1.266c-0.453-0.029-1.087,0.316-1.354,0.695
		c-0.25,0.352-0.311,1.305-0.116,1.417C1232.508,15.369,1233.075,14.711,1233.544,14.004z"/>
	<path fill="#EFA016" d="M652.211,21.982c0.22,0.002,0.625-0.279,0.629-0.441c0.018-0.484-0.123-0.977-0.199-1.463
		c-0.416,0.262-0.829,0.523-1.243,0.785C651.255,21.556,651.526,21.979,652.211,21.982z"/>
	<path fill="#EFA016" d="M435.896,45.375c0.386,0.248,0.77,0.679,1.154,0.678c0.246-0.002,0.486-0.641,0.731-0.996
		c-0.382-0.246-0.768-0.686-1.144-0.676C436.382,44.387,436.142,45.02,435.896,45.375z"/>
	<path fill="#EFA016" d="M321.6,114.322c0.123,0.139,0.561,0.149,0.733,0.036c0.166-0.111,0.177-0.458,0.257-0.699
		c-0.205-0.163-0.438-0.49-0.609-0.46C321.26,113.324,321.107,113.778,321.6,114.322z"/>
	<path fill="#EFA016" d="M1586.045,121.833c-0.42,0.632-0.198,1.053,0.545,1.044c0.18-0.002,0.472-0.329,0.505-0.537
		c0.03-0.205-0.206-0.449-0.321-0.677C1586.525,121.713,1586.144,121.68,1586.045,121.833z"/>
	<path fill="#EFA016" d="M211.466,127.474c-0.301-0.03-0.66,0.506-0.993,0.787c0.308,0.336,0.614,0.669,0.921,1.001
		c0.389-0.335,0.724-0.623,1.055-0.909C212.124,128.037,211.82,127.51,211.466,127.474z"/>
	<path fill="#EFA016" d="M401.355,133.64c0.384,0.217,0.833,0.674,1.133,0.59c0.334-0.091,0.532-0.676,0.789-1.047
		c-0.385-0.22-0.833-0.671-1.141-0.591C401.805,132.681,401.609,133.269,401.355,133.64z"/>
	<path fill="#EFA016" d="M1455.998,38.596c-0.708-0.002-1.084,0.48-0.749,1.095c0.199,0.37,0.828,0.508,1.267,0.749
		c0.529-0.414,0.615-0.916,0.176-1.443C1456.527,38.8,1456.233,38.598,1455.998,38.596z"/>
	<path fill="#EFA016" d="M1538.746,137.704c-0.225-0.014-0.719,0.802-0.692,1.212c0.033,0.463,0.409,1.072,0.813,1.3
		c0.547,0.303,1.001-0.103,1.034-0.297C1540.046,138.517,1539.741,137.76,1538.746,137.704z"/>
	<path fill="#EFA016" d="M924.668,146.626c0.122,0.324,0.704,0.479,1.086,0.709c0.172-0.401,0.345-0.801,0.51-1.206
		c-0.382-0.229-0.765-0.46-1.146-0.689C924.949,145.841,924.558,146.326,924.668,146.626z"/>
	<path fill="#EFA016" d="M1899.07,146.135c-0.209-0.053-0.625,0.072-0.692,0.228c-0.268,0.641,0.037,0.992,0.756,0.867
		c0.177-0.03,0.298-0.369,0.446-0.565C1899.411,146.479,1899.272,146.185,1899.07,146.135z"/>
	<path fill="#EFA016" d="M1804.055,21.036c-0.807-0.058-1.721,0.188-1.442,1.303c0.073,0.286,0.905,0.381,1.387,0.562
		c0.392-0.322,0.786-0.644,1.176-0.967C1804.804,21.617,1804.449,21.064,1804.055,21.036z"/>
	<path fill="#EFA016" d="M1190.658,4.386c-0.328,0.12-0.479,0.702-0.711,1.085c0.401,0.169,0.802,0.34,1.203,0.508
		c0.233-0.383,0.464-0.764,0.693-1.146C1191.439,4.662,1190.956,4.273,1190.658,4.386z"/>
	<path fill="#EFA016" d="M1233.555,58.225c-0.019,0.486,0.117,0.977,0.193,1.465c0.409-0.262,0.818-0.525,1.227-0.789
		c0.139-0.697-0.127-1.123-0.801-1.124C1233.956,57.776,1233.562,58.059,1233.555,58.225z"/>
	<path fill="#EFA016" d="M465.669,0.424c-0.65-0.279-1.042-0.012-0.981,0.666c0.014,0.148,0.4,0.266,0.613,0.396
		c0.214-0.135,0.54-0.226,0.617-0.417C465.983,0.906,465.827,0.492,465.669,0.424z"/>
	<path fill="#EFA016" d="M1710.733,60.57c-0.427,0.249-0.834,0.703-1.015,1.158c-0.243,0.612,0.146,1.123,0.799,1.028
		c0.865-0.124,1.383-0.726,1.453-1.64C1711.779,60.512,1711.31,60.234,1710.733,60.57z"/>
	<path fill="#EFA016" d="M1363.221,61.342c-0.147,0.197-0.418,0.403-0.407,0.588c0.017,0.199,0.29,0.521,0.471,0.537
		c0.729,0.061,0.999-0.32,0.654-0.934C1363.856,61.382,1363.467,61.4,1363.221,61.342z"/>
	<path fill="#EFA016" d="M1194.234,65.17c0.038,0.381,0.518,0.715,0.81,1.068c0.33-0.285,0.938-0.596,0.914-0.851
		c-0.033-0.376-0.52-0.712-0.809-1.063C1194.819,64.607,1194.208,64.922,1194.234,65.17z"/>
	<path fill="#EFA016" d="M984.485,77.637c-0.059,0.77,0.105,1.719,1.249,1.283c0.292-0.112,0.325-0.916,0.476-1.404
		c-0.314-0.372-0.63-0.742-0.945-1.112C984.989,76.814,984.515,77.209,984.485,77.637z"/>
	<path fill="#EFA016" d="M1298.193,77.018c0.547,0.407,1.157,0.347,1.442-0.244c0.285-0.593-0.053-1.072-0.708-1.289
		c-0.701-0.137-1.133,0.139-1.15,0.835C1297.774,76.552,1297.987,76.864,1298.193,77.018z"/>
	<path fill="#EFA016" d="M105.607,23.525c0.125,0.318,0.724,0.453,1.116,0.67c0.168-0.408,0.333-0.814,0.499-1.223
		c-0.392-0.218-0.785-0.434-1.177-0.65C105.879,22.732,105.492,23.226,105.607,23.525z"/>
	<path fill="#EFA016" d="M1596.427,90.326c-0.487,0.045-0.959,0.241-1.435,0.379c0.322,0.352,0.647,0.705,0.969,1.056
		c0.71,0.056,1.097-0.253,1.013-0.911C1596.946,90.646,1596.599,90.311,1596.427,90.326z"/>
	<path fill="#EFA016" d="M1901.979,93.721c-0.019,0.349,0.476,0.717,0.741,1.076c0.323-0.297,0.646-0.591,0.968-0.889
		c-0.27-0.361-0.535-0.723-0.805-1.082C1902.559,93.122,1901.994,93.408,1901.979,93.721z"/>
	<path fill="#EFA016" d="M1297.317,95.189c-0.373,0.25-0.958,0.438-1.062,0.77c-0.09,0.299,0.352,0.759,0.565,1.15
		c0.375-0.253,0.956-0.442,1.06-0.777C1297.971,96.035,1297.528,95.576,1297.317,95.189z"/>
	<path fill="#EFA016" d="M437.409,8.148c-0.647-0.162-1.009,0.379-0.848,1.072c0.058,0.252,0.25,0.547,0.467,0.671
		c0.625,0.354,1.074,0.136,1.29-0.554C438.019,8.921,437.787,8.242,437.409,8.148z"/>
	<path fill="#EFA016" d="M1473.006,98.337c0.409,0.178,0.886,0.565,1.215,0.468c0.299-0.086,0.438-0.709,0.645-1.1
		c-0.41-0.178-0.89-0.571-1.208-0.469C1473.352,97.33,1473.216,97.949,1473.006,98.337z"/>
	<path fill="#EFA016" d="M1521.128,0h-0.218c0.051,0.021,0.098,0.033,0.137,0.025C1521.081,0.019,1521.098,0.008,1521.128,0z"/>
	<path fill="#EFA016" d="M1754.706,15.395c0.291,0.364,0.779,0.625,1.23,0.803c0.609,0.24,0.984-0.031,1.07-0.853
		c-0.551-0.302-1.143-0.808-1.806-0.931C1754.567,14.298,1754.29,14.877,1754.706,15.395z"/>
	<path fill="#EFA016" d="M1887.113,16.549c-0.403-0.168-0.614-0.41-0.889-0.289c-0.092,0.039-0.479,0.103-0.54,0.158
		c-0.045,0-0.473-0.014-0.473-0.014c-11,0-11,17.033,0,17.033C1897.211,33.438,1896.588,18.004,1887.113,16.549z"/>
	<path fill="#EFA016" d="M408.068,18.846c-0.22,0.088-0.586,0.131-0.628,0.273c-0.189,0.633,0.124,0.943,0.784,0.778
		c0.156-0.04,0.357-0.392,0.327-0.562C408.517,19.149,408.238,19.007,408.068,18.846z"/>
	<path fill="#EFA016" d="M167.627,24.865c-0.155-0.053-0.414,0.203-0.624,0.316c0.043,0.238,0.013,0.553,0.153,0.684
		c0.147,0.136,0.562,0.211,0.682,0.105C168.356,25.525,168.269,25.079,167.627,24.865z"/>
	<path fill="#EFA016" d="M972.461,25.42c-0.138,0.147-0.213,0.563-0.108,0.682c0.442,0.518,0.884,0.434,1.1-0.207
		c0.054-0.156-0.199-0.414-0.313-0.627C972.907,25.313,972.59,25.281,972.461,25.42z"/>
	<path fill="#EFA016" d="M966.944,32.415c-0.139,0.181-0.396,0.371-0.386,0.54c0.017,0.19,0.26,0.496,0.436,0.518
		c0.685,0.08,0.937-0.268,0.618-0.852C967.531,32.475,967.173,32.479,966.944,32.415z"/>
	<path fill="#EFA016" d="M1773.604,37.768c-0.391,0.016-0.762,0.549-1.145,0.85c0.068,0.662,0.446,0.945,1.103,0.752
		c0.231-0.067,0.494-0.264,0.605-0.474C1774.487,38.291,1774.258,37.739,1773.604,37.768z"/>
	<path fill="#EFA016" d="M970.051,42.925c-0.172,0.042-0.411,0.364-0.394,0.541c0.069,0.683,0.462,0.858,0.971,0.438
		c0.116-0.097,0.016-0.454,0.016-0.707C970.467,43.105,970.229,42.883,970.051,42.925z"/>
	<path fill="#EFA016" d="M1145.166,41.164c-0.641-0.205-1.026,0.064-1.12,0.721c0.375,0.309,0.734,0.842,1.128,0.869
		c0.655,0.047,0.896-0.492,0.589-1.104C1145.657,41.437,1145.399,41.238,1145.166,41.164z"/>
	<path fill="#EFA016" d="M413.516,56.438c-0.194,0.122-0.342,0.408-0.398,0.646c-0.151,0.647,0.137,1.007,0.779,1.057
		c0.262-0.402,0.736-0.806,0.733-1.207C414.628,56.276,414.088,56.078,413.516,56.438z"/>
	<path fill="#EFA016" d="M734.502,78.859c-0.66-0.131-0.931,0.209-0.66,0.842c0.063,0.156,0.408,0.193,0.626,0.285
		c0.145-0.186,0.403-0.367,0.405-0.556C734.88,79.235,734.669,78.894,734.502,78.859z"/>
	<path fill="#EFA016" d="M579.544,80.826c-0.14,0.186-0.394,0.373-0.387,0.555c0.003,0.195,0.228,0.52,0.396,0.548
		c0.665,0.115,0.918-0.228,0.623-0.842C580.103,80.936,579.764,80.91,579.544,80.826z"/>
	<path fill="#EFA016" d="M1580.775,95.423c0.002,0.21,0.252,0.584,0.409,0.595c0.443,0.033,0.9-0.084,1.354-0.143
		c-0.244-0.395-0.487-0.787-0.731-1.178C1581.158,94.527,1580.769,94.771,1580.775,95.423z"/>
	<path fill="#EFA016" d="M1741.303,94.451c-0.229,0.061-0.491,0.188-0.631,0.369c-0.428,0.543-0.27,0.92,0.398,1.075
		c0.404-0.241,1.045-0.401,1.158-0.743C1742.423,94.592,1741.947,94.281,1741.303,94.451z"/>
	<path fill="#EFA016" d="M1424.027,100.868c0.034-0.241,0.169-0.532,0.075-0.706c-0.09-0.17-0.467-0.355-0.618-0.292
		c-0.636,0.253-0.693,0.701-0.146,1.111C1423.466,101.078,1423.792,100.912,1424.027,100.868z"/>
	<path fill="#EFA016" d="M284.496,104.732c-0.4,0.574-0.208,0.954,0.474,0.943c0.168-0.006,0.429-0.297,0.464-0.491
		c0.035-0.184-0.173-0.411-0.274-0.615C284.932,104.619,284.594,104.594,284.496,104.732z"/>
	<path fill="#EFA016" d="M450.548,104.943c-0.169,0.152-0.454,0.291-0.476,0.466c-0.029,0.194,0.137,0.555,0.298,0.609
		c0.646,0.217,0.959-0.075,0.776-0.72C451.098,105.135,450.753,105.061,450.548,104.943z"/>
	<path fill="#EFA016" d="M578.872,108.694c-0.072,0.463-0.195,0.926-0.172,1.387c0.005,0.135,0.417,0.368,0.641,0.362
		c0.662-0.011,0.919-0.413,0.776-1.076C579.703,109.141,579.286,108.919,578.872,108.694z"/>
	<path fill="#EFA016" d="M1281.596,111.298c-0.179,0.157-0.468,0.29-0.509,0.479c-0.042,0.196,0.104,0.594,0.253,0.646
		c0.643,0.219,0.98-0.081,0.84-0.744C1282.147,111.517,1281.798,111.423,1281.596,111.298z"/>
	<path fill="#EFA016" d="M1103.799,121.322c-0.08,0.69,0.27,0.939,0.857,0.621c0.144-0.08,0.142-0.44,0.205-0.671
		c-0.183-0.142-0.372-0.399-0.545-0.386C1104.126,120.903,1103.819,121.147,1103.799,121.322z"/>
	<path fill="#EFA016" d="M1424.14,120.885c-0.235,0.065-0.502,0.257-0.612,0.468c-0.324,0.599-0.104,1.153,0.545,1.137
		c0.395-0.011,0.769-0.544,1.154-0.84C1425.169,120.986,1424.796,120.699,1424.14,120.885z"/>
	<path fill="#EFA016" d="M1578.557,129.637c-0.209,0.003-0.577,0.249-0.592,0.404c-0.033,0.44,0.082,0.893,0.136,1.34
		c0.392-0.241,0.782-0.479,1.173-0.722C1579.438,130.017,1579.199,129.629,1578.557,129.637z"/>
	<path fill="#EFA016" d="M1175.439,131.045c-0.638,0.277-0.665,0.701-0.075,1.033c0.153,0.087,0.527-0.019,0.666-0.163
		c0.125-0.127,0.061-0.435,0.08-0.662C1175.883,131.175,1175.603,130.976,1175.439,131.045z"/>
	<path fill="#EFA016" d="M730.012,137.762c-0.231-0.074-0.517-0.273-0.677-0.202c-0.643,0.286-0.665,0.71-0.065,1.042
		c0.151,0.087,0.526-0.026,0.668-0.174C730.061,138.3,729.994,137.992,730.012,137.762z"/>
	<path fill="#EFA016" d="M121.872,140.294c-0.152,0.071-0.176,0.412-0.26,0.632c0.186,0.142,0.374,0.394,0.554,0.388
		c0.195-0.003,0.52-0.228,0.549-0.396C122.829,140.252,122.486,140,121.872,140.294z"/>
	<path fill="#EFA016" d="M945.217,145.663c-0.115,0.665,0.227,0.921,0.843,0.624c0.151-0.072,0.177-0.413,0.26-0.632
		c-0.188-0.139-0.374-0.394-0.555-0.392C945.571,145.27,945.245,145.494,945.217,145.663z"/>
	<path fill="#EFA016" d="M1117.82,153.284c-0.225-0.024-0.513,0.128-0.701,0.286c-0.499,0.415-0.577,1.025-0.051,1.278
		c0.292,0.144,0.862-0.28,1.304-0.449C1118.665,153.772,1118.488,153.359,1117.82,153.284z"/>
	<path fill="#EFA016" d="M265.456,116.168c-0.125,0.095-0.039,0.469-0.047,0.716c0.262-0.014,0.588,0.059,0.765-0.071
		c0.12-0.087,0.024-0.463,0.024-0.708C265.96,116.113,265.627,116.038,265.456,116.168z"/>
	<polygon fill="#EFA016" points="1098.799,152.708 1099.323,152.78 1099.118,152.287 	"/>
	<polygon fill="#EFA016" points="72.274,151.2 72.404,150.679 71.901,150.814 	"/>
	<path fill="#EFA016" d="M1637.165,148.262c-0.053,0.154,0.157,0.398,0.248,0.602c0.214-0.033,0.508,0.008,0.621-0.117
		c0.125-0.136,0.188-0.499,0.095-0.635C1637.763,147.591,1637.368,147.651,1637.165,148.262z"/>
	<path fill="#EFA016" d="M891.184,138.333c-0.563,0.294-0.568,0.707-0.012,1.026c0.134,0.077,0.494-0.033,0.6-0.172
		c0.102-0.142,0.021-0.425,0.021-0.646C891.588,138.467,891.317,138.267,891.184,138.333z"/>
	<path fill="#EFA016" d="M1424.892,136.026c-0.147-0.058-0.511,0.073-0.571,0.211c-0.249,0.568-0.017,0.912,0.58,0.859
		c0.132-0.011,0.236-0.344,0.354-0.529C1425.137,136.379,1425.061,136.094,1424.892,136.026z"/>
	<path fill="#EFA016" d="M795.694,126.243c-0.594-0.241-0.891,0.014-0.729,0.629c0.042,0.161,0.349,0.345,0.536,0.342
		c0.16,0,0.318-0.247,0.479-0.383C795.887,126.629,795.844,126.305,795.694,126.243z"/>
	<path fill="#EFA016" d="M1307.533,121.244l-0.022,0.02c0.169,0.505,0.295,1.026,0.514,1.506c0.311,0.677,0.783,1.83,1.464,1.355
		c0.71-0.499-0.239-1.313-0.745-1.846C1308.382,121.896,1307.938,121.586,1307.533,121.244z"/>
	<path fill="#EFA016" d="M1920,123.018v-0.756c-0.11,0.125-0.217,0.248-0.197,0.344C1919.843,122.799,1919.916,122.925,1920,123.018
		z"/>
	<polygon fill="#EFA016" points="1794.782,121.552 1794.981,121.07 1794.444,121.147 	"/>
	<path fill="#EFA016" d="M1637.763,113.186c-0.075-0.149-0.426-0.319-0.563-0.261c-0.579,0.23-0.643,0.641-0.162,1.021
		c0.112,0.086,0.416-0.067,0.633-0.111C1637.709,113.612,1637.843,113.346,1637.763,113.186z"/>
	<path fill="#EFA016" d="M69.339,111.425c-0.021,0.153,0.252,0.345,0.389,0.516c0.209-0.075,0.507-0.092,0.603-0.238
		c0.095-0.149,0.075-0.529-0.043-0.632C69.811,110.657,69.428,110.801,69.339,111.425z"/>
	<path fill="#EFA016" d="M646.991,108.256c-0.077,0.206-0.277,0.478-0.207,0.607c0.293,0.565,0.708,0.573,1.028,0.017
		c0.075-0.133-0.035-0.496-0.174-0.602C647.496,108.173,647.214,108.256,646.991,108.256z"/>
	<polygon fill="#EFA016" points="410.818,105.24 411.344,105.313 411.14,104.815 	"/>
	<path fill="#EFA016" d="M266.449,103.131c-0.612,0.097-0.747,0.481-0.332,0.95c0.104,0.116,0.474,0.13,0.622,0.039
		c0.143-0.092,0.155-0.386,0.225-0.591C266.792,103.388,266.597,103.107,266.449,103.131z"/>
	<path fill="#EFA016" d="M457.462,99.555c-0.118,0.107-0.127,0.479-0.032,0.626c0.094,0.144,0.39,0.152,0.596,0.22
		c0.14-0.176,0.422-0.375,0.396-0.521C458.317,99.263,457.929,99.133,457.462,99.555z"/>
	<path fill="#EFA016" d="M1620.258,90.117c-0.121,0.112-0.15,0.475-0.057,0.622c0.085,0.138,0.383,0.142,0.588,0.204
		c0.146-0.174,0.428-0.367,0.408-0.518C1621.109,89.809,1620.726,89.682,1620.258,90.117z"/>
	<path fill="#EFA016" d="M1382.42,84.52c-0.078,0.205-0.277,0.477-0.209,0.609c0.293,0.563,0.704,0.569,1.026,0.015
		c0.076-0.133-0.037-0.495-0.176-0.599C1382.92,84.439,1382.641,84.521,1382.42,84.52z"/>
	<path fill="#EFA016" d="M373.296,84.904c0,1.377,0.338,2.755,0.537,4.134c0.458-1.327,0.985-2.673,0.489-4.08
		C374.064,84.221,373.296,84.24,373.296,84.904z"/>
	<polygon fill="#EFA016" points="1335.373,77.478 1335.758,77.104 1335.241,76.975 	"/>
	<polygon fill="#EFA016" points="488.104,70.68 488.558,70.404 488.079,70.16 	"/>
	<path fill="#EFA016" d="M1167.78,63.453c-0.52,0.031-1.153-0.035-1.521,0.235c-0.542,0.394-0.348,1.021,0.335,1.075
		c0.46,0.035,0.948-0.363,1.425-0.566C1168.835,63.66,1168.755,63.396,1167.78,63.453z"/>
	<polygon fill="#EFA016" points="1487.036,61.322 1487.44,60.984 1486.959,60.785 	"/>
	<path fill="#EFA016" d="M609.887,61.064c-0.172,0.049-0.424,0.338-0.401,0.484c0.094,0.62,0.478,0.773,0.951,0.381
		c0.116-0.095,0.037-0.422,0.048-0.643C610.283,61.204,610.055,61.021,609.887,61.064z"/>
	<path fill="#EFA016" d="M456.37,55.674c-0.624-0.102-0.87,0.225-0.61,0.805c0.063,0.142,0.392,0.162,0.597,0.238
		c0.137-0.174,0.378-0.349,0.379-0.524C456.737,56.013,456.525,55.698,456.37,55.674z"/>
	<path fill="#EFA016" d="M1816.409,45.217c-0.056,0.146,0.116,0.477,0.274,0.568c0.149,0.084,0.416-0.034,0.632-0.063
		c0.037-0.221,0.184-0.523,0.09-0.645C1817.024,44.574,1816.62,44.63,1816.409,45.217z"/>
	<path fill="#EFA016" d="M394.539,43.387c0.143-0.095,0.166-0.38,0.242-0.582c-0.185-0.117-0.388-0.355-0.552-0.332
		c-0.655,0.1-0.786,0.473-0.327,0.92C394.016,43.504,394.38,43.486,394.539,43.387z"/>
	<polygon fill="#EFA016" points="1430.991,40.859 1431.512,40.83 1431.235,40.377 	"/>
	<path fill="#EFA016" d="M843.107,32.315c-0.6,0.25-0.633,0.648-0.075,0.978c0.141,0.084,0.496-0.006,0.629-0.139
		c0.113-0.119,0.055-0.409,0.072-0.623C843.522,32.453,843.258,32.252,843.107,32.315z"/>
	<path fill="#EFA016" d="M1085.752,30.754c0.162,0.449,0.288,0.917,0.515,1.331c0.048,0.083,0.468-0.038,0.719-0.067
		c-0.164-0.451-0.292-0.918-0.521-1.332C1086.42,30.602,1086,30.725,1085.752,30.754z"/>
	<path fill="#EFA016" d="M745.997,28.568c-0.143-0.047-0.374,0.176-0.565,0.275c0.019,0.205-0.033,0.489,0.081,0.596
		c0.125,0.115,0.477,0.164,0.601,0.07C746.607,29.137,746.556,28.754,745.997,28.568z"/>
	<path fill="#EFA016" d="M1592.515,23.763c-0.075,0.204-0.271,0.466-0.207,0.607c0.266,0.591,0.676,0.624,1.009,0.087
		c0.079-0.129-0.025-0.49-0.164-0.608C1593.02,23.73,1592.737,23.785,1592.515,23.763z"/>
	<path fill="#EFA016" d="M738.755,23.262c-0.116,0.105-0.127,0.479-0.028,0.625c0.092,0.143,0.389,0.152,0.594,0.219
		c0.139-0.176,0.421-0.374,0.394-0.521C739.613,22.97,739.221,22.84,738.755,23.262z"/>
	<path fill="#EFA016" d="M1277.87,22.598c-0.104-1.021-1.221-0.502-1.914-0.357c-0.787,0.166-1.547,0.439-2.316,0.666l-0.025,0.027
		c0.782,0.179,1.555,0.438,2.346,0.517C1276.74,23.529,1277.95,23.393,1277.87,22.598z"/>
	<path fill="#EFA016" d="M804.841,21.568c-0.114,0.105-0.127,0.477-0.03,0.625c0.093,0.142,0.389,0.149,0.596,0.217
		c0.139-0.174,0.42-0.373,0.395-0.521C805.696,21.274,805.309,21.144,804.841,21.568z"/>
	<path fill="#EFA016" d="M425.35,21.514c-0.274,0.439-0.462,0.932-0.688,1.402l0.011,0.01c0.435-0.287,0.896-0.543,1.292-0.872
		c0.553-0.463,1.589-1.139,0.974-1.696C426.351,19.823,425.737,20.895,425.35,21.514z"/>
	<path fill="#EFA016" d="M1828.635,16.604c0.047,0.229,0.069,0.649,0.152,0.661c0.457,0.064,0.93,0.03,1.387,0.03
		c-0.037-0.177-0.053-0.595-0.139-0.609C1829.579,16.602,1829.103,16.619,1828.635,16.604z"/>
	<path fill="#EFA016" d="M934.959,13.537c0.083,0.242,0.102,0.598,0.271,0.698c0.161,0.095,0.483-0.079,0.729-0.133
		c-0.082-0.245-0.104-0.604-0.269-0.701C935.528,13.307,935.209,13.48,934.959,13.537z"/>
	<path fill="#EFA016" d="M805.489,10.473c0.035-0.137-0.214-0.349-0.333-0.526c-0.202,0.038-0.487,0.007-0.592,0.129
		c-0.104,0.126-0.121,0.487-0.021,0.597C804.959,11.115,805.342,11.033,805.489,10.473z"/>
	<path fill="#EFA016" d="M811.295,4.146c-0.57-0.25-0.914-0.016-0.863,0.582c0.013,0.133,0.346,0.238,0.532,0.356
		c0.188-0.118,0.476-0.196,0.543-0.364C811.565,4.572,811.436,4.208,811.295,4.146z"/>
	<path fill="#EFA016" d="M1069.235,1.372c-0.267,0.553-0.04,0.939,0.563,1.106c0.363-0.249,0.727-0.5,1.087-0.75
		c-0.355-0.256-0.688-0.557-1.079-0.734C1069.689,0.941,1069.321,1.185,1069.235,1.372z"/>
	<polygon fill="#EFA016" points="1044.896,157.687 1045.35,157.568 1045.007,157.216 	"/>
	<polygon fill="#EFA016" points="982.036,151.405 982.147,150.937 981.693,151.056 	"/>
	<path fill="#EFA016" d="M904.02,146.726c-0.061,0.166,0.135,0.421,0.222,0.635c0.194-0.133,0.493-0.23,0.561-0.41
		c0.054-0.167-0.142-0.419-0.228-0.636C904.379,146.448,904.081,146.545,904.02,146.726z"/>
	<path fill="#EFA016" d="M630.524,142.01c0.297-0.702,0.593-1.4,0.886-2.102l-0.016-0.017
		C631.15,140.614,629.57,140.79,630.524,142.01z"/>
	<polygon fill="#EFA016" points="1416.425,138.22 1416.874,138.028 1416.495,137.743 	"/>
	<path fill="#EFA016" d="M1657.413,135.788c-0.088,0.072,0.053,0.43,0.089,0.654c0.228-0.077,0.452-0.155,0.679-0.232
		C1658.299,135.453,1658.026,135.286,1657.413,135.788z"/>
	<path fill="#EFA016" d="M1754.911,133.679c-0.036,0.072,0.289,0.308,0.443,0.466c0.164-0.178,0.33-0.355,0.502-0.543
		C1755.571,132.988,1755.223,132.991,1754.911,133.679z"/>
	<path fill="#EFA016" d="M576.318,131.034c0.087,0.038,0.349-0.308,0.531-0.475c-0.17-0.18-0.343-0.36-0.513-0.541
		C575.616,130.341,575.597,130.712,576.318,131.034z"/>
	<polygon fill="#EFA016" points="1802.215,125.508 1802.334,125.04 1801.881,125.173 	"/>
	<polygon fill="#EFA016" points="281.982,125.969 282.398,125.736 281.987,125.486 	"/>
	<polygon fill="#EFA016" points="607.466,113.692 607.703,113.266 607.232,113.285 	"/>
	<polygon fill="#EFA016" points="1914.362,108.614 1914.566,108.176 1914.097,108.209 	"/>
	<polygon fill="#EFA016" points="1162.245,106.008 1162.692,105.816 1162.316,105.533 	"/>
	<path fill="#EFA016" d="M1104.79,102.975c-0.069,0.242-0.252,0.544-0.17,0.707c0.078,0.153,0.443,0.158,0.683,0.229
		c0.067-0.24,0.252-0.544,0.166-0.705C1105.388,103.053,1105.025,103.045,1104.79,102.975z"/>
	<polygon fill="#EFA016" points="1270.772,101.348 1271.11,101.015 1270.645,100.898 	"/>
	<polygon fill="#EFA016" points="185.565,95.502 185.766,95.063 185.295,95.099 	"/>
	<path fill="#EFA016" d="M753.84,91.422c-0.1,0.206-0.309,0.437-0.269,0.616c0.035,0.178,0.315,0.306,0.492,0.455
		c0.101-0.207,0.306-0.435,0.27-0.612C754.294,91.699,754.014,91.572,753.84,91.422z"/>
	<polygon fill="#EFA016" points="81.917,91.442 82.387,91.508 82.214,91.065 	"/>
	<polygon fill="#EFA016" points="1198.549,89.5 1198.62,89.021 1198.17,89.215 	"/>
	<polygon fill="#EFA016" points="225.541,88.931 226.008,89.047 225.879,88.596 	"/>
	<polygon fill="#EFA016" points="1512.031,85.723 1512.098,85.253 1511.652,85.422 	"/>
	<polygon fill="#EFA016" points="141.856,83.658 142.096,83.236 141.629,83.246 	"/>
	<path fill="#EFA016" d="M1778.674,73.008c0.078,0.227,0.086,0.545,0.244,0.652c0.137,0.094,0.434-0.049,0.662-0.084
		c-0.071-0.228-0.082-0.549-0.236-0.654C1779.207,72.828,1778.905,72.971,1778.674,73.008z"/>
	<polygon fill="#EFA016" points="720.507,69.936 720.442,70.405 720.885,70.232 	"/>
	<polygon fill="#EFA016" points="1118.424,68.768 1118.604,68.324 1118.12,68.406 	"/>
	<polygon fill="#EFA016" points="1324.411,57.521 1324.882,57.575 1324.68,57.143 	"/>
	<path fill="#EFA016" d="M548.985,55.574c-0.151,0.078-0.156,0.443-0.229,0.682c0.242,0.066,0.546,0.254,0.706,0.169
		c0.154-0.083,0.159-0.444,0.231-0.684C549.452,55.675,549.149,55.49,548.985,55.574z"/>
	<polygon fill="#EFA016" points="245.297,54.767 245.422,54.299 244.967,54.42 	"/>
	<path fill="#EFA016" d="M1466.803,48.346l0.008,0.006c0.251-0.718,1.803-0.895,0.872-2.103
		C1467.391,46.949,1467.098,47.647,1466.803,48.346z"/>
	<path fill="#EFA016" d="M1762.895,41.846c-0.738,0.367-0.735,0.725-0.015,1.014c0.086,0.035,0.467-0.316,0.456-0.475
		C1763.322,42.191,1763.044,42.014,1762.895,41.846z"/>
	<polygon fill="#EFA016" points="1426.234,32.244 1426.588,31.941 1426.15,31.765 	"/>
	<polygon fill="#EFA016" points="445.982,31.875 446.333,31.532 445.864,31.421 	"/>
	<polygon fill="#EFA016" points="1818.81,30.38 1819.239,30.562 1819.185,30.078 	"/>
	<polygon fill="#EFA016" points="1792.763,26.379 1793.013,25.969 1792.528,25.963 	"/>
	<polygon fill="#EFA016" points="1128.094,27.235 1128.296,26.799 1127.831,26.831 	"/>
	<path fill="#EFA016" d="M1553.75,23.676c-0.105-0.035-0.318,0.264-0.484,0.412c0.169,0.178,0.311,0.436,0.512,0.5
		c0.111,0.033,0.321-0.266,0.49-0.414C1554.097,23.997,1553.956,23.742,1553.75,23.676z"/>
	<polygon fill="#EFA016" points="818.333,18.277 818.667,17.943 818.202,17.826 	"/>
	<path fill="#EFA016" d="M1473.497,16.432c-0.539,0.463-1.079,0.926-1.619,1.389l0.023,0.026
		C1472.402,17.338,1473.951,18.014,1473.497,16.432z"/>
	<path fill="#EFA016" d="M1105.096,12.097c0.104-0.126-0.041-0.448-0.076-0.684c-0.242,0.049-0.575,0.022-0.693,0.169
		c-0.104,0.127,0.045,0.451,0.083,0.688C1104.649,12.22,1104.979,12.245,1105.096,12.097z"/>
	<polygon fill="#EFA016" points="1695.592,10.189 1696.048,10.07 1695.705,9.719 	"/>
	<polygon fill="#EFA016" points="500.567,3.878 501.012,3.764 500.679,3.418 	"/>
	<path fill="#EFA016" d="M1470.551,18.795c-0.157,0.137-0.168,0.437-0.246,0.662c0.531-0.537,1.064-1.074,1.596-1.61l-0.023-0.024
		C1471.431,18.141,1470.959,18.434,1470.551,18.795z"/>
	<path fill="#EFA016" d="M685.868,20.015c-0.15,0.075-0.187,0.377-0.274,0.575c0.582-0.344,1.167-0.688,1.751-1.029l-0.061-0.066
		C686.81,19.662,686.317,19.794,685.868,20.015z"/>
	<path fill="#EFA016" d="M586.312,51.311c-0.108,0.166-0.015,0.465-0.011,0.703c0.349-0.656,0.698-1.313,1.047-1.967l-0.005-0.003
		C586.994,50.463,586.61,50.857,586.312,51.311z"/>
	<path fill="#EFA016" d="M851.667,77.144l0.05,0.052c0.145-0.721,1.529-1.06,0.648-2.096
		C852.133,75.779,851.9,76.463,851.667,77.144z"/>
	<path fill="#EFA016" d="M905.006,135.6c0.298,0.308,0.596,0.618,0.894,0.929l0.032-0.027
		C905.624,136.201,905.314,135.899,905.006,135.6z"/>
	<path fill="#EFA016" d="M905.9,136.528c0.159,0.521,0.286,1.06,0.501,1.556c0.078,0.18,0.374,0.267,0.572,0.394
		c-0.348-0.659-0.693-1.319-1.041-1.977L905.9,136.528z"/>
	<path fill="#EFA016" d="M367.07,109.398l-0.029-0.031c-0.237,0.325-0.474,0.649-0.712,0.975
		C366.575,110.028,366.824,109.712,367.07,109.398z"/>
	<path fill="#EFA016" d="M1154.059,16.857c0.319-0.24,0.638-0.478,0.957-0.719l-0.004-0.004
		C1154.694,16.375,1154.378,16.617,1154.059,16.857z"/>
	<path fill="#EFA016" d="M822.882,144.986c0.269-0.014,0.534-0.03,0.8-0.047c-0.266,0.017-0.531,0.031-0.795,0.045L822.882,144.986z
		"/>
	<path fill="#EFA016" d="M160.321,38.178v-0.002c-0.317-0.24-0.634-0.479-0.953-0.718C159.686,37.697,160.004,37.938,160.321,38.178
		z"/>
	<path fill="#EFA016" d="M1832.835,50.061c0.237-0.324,0.477-0.652,0.716-0.977c-0.25,0.314-0.498,0.628-0.744,0.942
		L1832.835,50.061z"/>
	<polygon fill="#EFA016" points="1273.272,22.74 1273.614,22.934 1273.639,22.906 	"/>
	<polygon fill="#EFA016" points="1800.61,12.766 1800.651,12.726 1800.449,12.385 	"/>
	<polygon fill="#EFA016" points="1792.148,146.691 1792.17,146.67 1791.802,146.504 	"/>
	<polygon fill="#EFA016" points="478.887,117.868 479.073,118.215 478.903,117.852 	"/>
	<polygon fill="#EFA016" points="1832.469,50.226 1832.835,50.061 1832.807,50.026 	"/>
	
		<line fill="none" stroke="#EFA016" stroke-width="0" stroke-linecap="round" stroke-linejoin="round" x1="397.557" y1="72.086" x2="397.557" y2="72.084"/>
	<path fill="#EFA016" d="M1168.571,63.607c0.57-0.56,1.141-1.118,1.71-1.678l-0.037-0.035
		C1169.686,62.465,1169.13,63.037,1168.571,63.607z"/>
	
		<line fill="none" stroke="#EFA016" stroke-width="0" stroke-linecap="round" stroke-linejoin="round" x1="478.903" y1="117.852" x2="478.887" y2="117.868"/>
	
		<line fill="none" stroke="#EFA016" stroke-width="0" stroke-linecap="round" stroke-linejoin="round" x1="1170.244" y1="61.895" x2="1170.281" y2="61.93"/>
	
		<line fill="none" stroke="#EFA016" stroke-width="0" stroke-linecap="round" stroke-linejoin="round" x1="1255" y1="116.157" x2="1254.986" y2="116.172"/>
	
		<line fill="none" stroke="#EFA016" stroke-width="0" stroke-linecap="round" stroke-linejoin="round" x1="943.194" y1="51.744" x2="943.202" y2="51.736"/>
	
		<line fill="none" stroke="#EFA016" stroke-width="0" stroke-linecap="round" stroke-linejoin="round" x1="1626.101" y1="43.255" x2="1626.088" y2="43.271"/>
	
		<line fill="none" stroke="#EFA016" stroke-width="0" stroke-linecap="round" stroke-linejoin="round" x1="668.683" y1="39.868" x2="668.688" y2="39.875"/>
	
		<line fill="none" stroke="#EFA016" stroke-width="0" stroke-linecap="round" stroke-linejoin="round" x1="160.321" y1="38.178" x2="160.321" y2="38.176"/>
	
		<line fill="none" stroke="#EFA016" stroke-width="0" stroke-linecap="round" stroke-linejoin="round" x1="631.394" y1="139.892" x2="631.41" y2="139.908"/>
	
		<line fill="none" stroke="#EFA016" stroke-width="0" stroke-linecap="round" stroke-linejoin="round" x1="119.644" y1="34.795" x2="119.664" y2="34.777"/>
	
		<line fill="none" stroke="#EFA016" stroke-width="0" stroke-linecap="round" stroke-linejoin="round" x1="119.644" y1="34.795" x2="119.663" y2="34.777"/>
	
		<line fill="none" stroke="#EFA016" stroke-width="0" stroke-linecap="round" stroke-linejoin="round" x1="822.882" y1="144.986" x2="822.887" y2="144.984"/>
	
		<line fill="none" stroke="#EFA016" stroke-width="0" stroke-linecap="round" stroke-linejoin="round" x1="423" y1="24.628" x2="423.001" y2="24.629"/>
	<path fill="#EFA016" d="M422.958,24.586L423,24.629c0,0,0-0.001,0-0.001c0.56-0.568,1.117-1.135,1.673-1.702l-0.011-0.01
		C424.096,23.471,423.526,24.029,422.958,24.586z"/>
	
		<line fill="none" stroke="#EFA016" stroke-width="0" stroke-linecap="round" stroke-linejoin="round" x1="1478.651" y1="78.845" x2="1478.692" y2="78.887"/>
	
		<line fill="none" stroke="#EFA016" stroke-width="0" stroke-linecap="round" stroke-linejoin="round" x1="1155.016" y1="16.139" x2="1155.012" y2="16.135"/>
	
		<line fill="none" stroke="#EFA016" stroke-width="0" stroke-linecap="round" stroke-linejoin="round" x1="1800.651" y1="12.726" x2="1800.61" y2="12.766"/>
	
		<line fill="none" stroke="#EFA016" stroke-width="0" stroke-linecap="round" stroke-linejoin="round" x1="1792.17" y1="146.67" x2="1792.148" y2="146.691"/>
	
		<line fill="none" stroke="#EFA016" stroke-width="0" stroke-linecap="round" stroke-linejoin="round" x1="851.717" y1="77.195" x2="851.667" y2="77.144"/>
	
		<line fill="none" stroke="#EFA016" stroke-width="0" stroke-linecap="round" stroke-linejoin="round" x1="1522.752" y1="90.71" x2="1522.708" y2="90.754"/>
	
		<line fill="none" stroke="#EFA016" stroke-width="0" stroke-linecap="round" stroke-linejoin="round" x1="219.631" y1="7.66" x2="219.629" y2="7.661"/>
	
		<line fill="none" stroke="#EFA016" stroke-width="0" stroke-linecap="round" stroke-linejoin="round" x1="1354.975" y1="92.424" x2="1354.964" y2="92.434"/>
	
		<line fill="none" stroke="#EFA016" stroke-width="0" stroke-linecap="round" stroke-linejoin="round" x1="367.041" y1="109.367" x2="367.07" y2="109.396"/>
	
		<line fill="none" stroke="#EFA016" stroke-width="0" stroke-linecap="round" stroke-linejoin="round" x1="624.625" y1="158.549" x2="624.623" y2="158.552"/>
</g>
</svg>
