<?xml version="1.0" encoding="utf-8"?>
<!-- Generator: Adobe Illustrator 19.2.1, SVG Export Plug-In . SVG Version: 6.00 Build 0)  -->
<svg version="1.1" id="Layer_1" xmlns="http://www.w3.org/2000/svg" xmlns:xlink="http://www.w3.org/1999/xlink" x="0px" y="0px"
	 viewBox="0 0 80 80" style="enable-background:new 0 0 80 80;" xml:space="preserve">
<style type="text/css">
	.st0{fill:#1E232D;}
	.st1{font-family:'MarkerFelt-Wide';}
	.st2{font-size:7.3969px;}
	.st3{font-size:7.971px;}
</style>
<g>
	<path class="st0" d="M55.9,40.6l4.7-1l2.5-0.5l-0.1-2.4c-0.3-7.8-4.9-15-12-18.9l-2-1.1l-1.7,1.4l-2.4,2.1l-0.4-2.9l-0.3-2.1
		L41.9,15c-0.1,0-0.3-0.1-0.5-0.1c-0.8-0.1-1.4-0.1-2.2-0.1c-5.9,0-11.5,2.1-15.9,5.9c-4.5,3.7-7.2,8.9-7.8,14.6
		c-0.1,0.5-0.1,1-0.1,1.6l-0.1,2.4l2.5,0.5l1.5,0.3l-1.6,1l-1.9,1.2l0.8,2.1c2.5,7.1,8.5,12.4,16,14.5c0.2-0.9,0.5-1.9,0.6-2.9
		c-6.5-1.8-11.6-6.6-13.7-12.6l7.3-4.8l-8.4-1.8c0-0.5,0.1-0.9,0.1-1.3c1-10.1,10-17.8,20.6-17.8c0.6,0,1.3,0,1.9,0.1
		c0.1,0,0.2,0,0.3,0l1.3,8.3l6.7-5.9c6.2,3.3,10.2,9.5,10.5,16.4l-11,2.3l9,6.6c-1.9,3.8-5.1,7-9.1,9c0.1,1.1,0.1,2.2,0,3.3
		c5-2.1,9.3-6,11.8-10.9l1-2.1l-2-1.4L55.9,40.6z"/>
	<path class="st0" d="M33.8,27.6c3.1,6,4.5,12.3,4.5,18.6c-1.9-0.9-4-1.5-6.2-1.6c-1.2-0.1-2.5-0.1-3.6,0.1c4.1,1.6,7.4,4.6,9.5,8.3
		c-0.5,4.2-1.6,8.5-3,12.5h9.1C44.1,65.1,48.5,40.1,33.8,27.6z"/>
</g>
<path class="st0" d="M39.2,3.3c-20.7,0-37.6,17-37.6,37.8c0,16.8,10.9,31,26,36l1.7-5.5C16.6,67.4,4.9,55.2,3.9,40.9
	C2.4,18.9,20.9,4.4,39,4.4c18.8,0,37.9,16.2,35.6,36.5c-0.1,0.5-0.2,2.2-0.1,1.7l2.2,0.1c0-0.6,0-1.1,0-1.6
	C76.8,20.3,59.9,3.3,39.2,3.3z"/>
<polyline class="st0" points="79,41.7 75.3,50.3 72,41.5 "/>
<text transform="matrix(1.1878 0 0 1 59.998 58.5964)" class="st0 st1 st2">Time</text>
<text transform="matrix(1.0995 0 0 1 60.6647 66.417)" class="st0 st1 st3">Tree</text>
</svg>
